<svg width="245" height="523" viewBox="0 0 245 523" fill="none" xmlns="http://www.w3.org/2000/svg">
<path d="M111.257 1.32221L134.741 1.32221L146.483 21.6604L134.741 41.9985L111.257 41.9985L99.5145 21.6604L111.257 1.32221Z" fill="black" fill-opacity="0.5"/>
<g clip-path="url(#clip0_155_240)">
<rect y="22.5" width="245" height="500" rx="5" fill="black" fill-opacity="0.5"/>
<path d="M123 -50C192.036 -50 248 5.96441 248 75C248 144.036 192.036 200 123 200C53.9644 200 -2 144.036 -2 75C-2 5.96441 53.9644 -50 123 -50ZM123 -48C55.069 -48 0 7.06898 0 75C0 142.931 55.069 198 123 198C190.931 198 246 142.931 246 75C246 7.06898 190.931 -48 123 -48ZM128.021 189.89C126.356 189.961 124.682 190 123 190C121.317 190 119.643 189.961 117.979 189.89L118.021 188.894C119.672 188.964 121.332 189 123 189C124.668 189 126.328 188.964 127.979 188.894L128.021 189.89ZM98.3145 186.32C101.53 187.03 104.798 187.604 108.109 188.036L108.044 188.531L108.015 188.76L107.979 189.026C104.639 188.591 101.343 188.011 98.0986 187.295L98.3145 186.32ZM147.9 187.295C144.656 188.011 141.36 188.591 138.02 189.026L137.955 188.532V188.531L137.891 188.036C141.202 187.604 144.47 187.03 147.686 186.32L147.9 187.295ZM79.3623 180.35C82.4132 181.615 85.5312 182.752 88.709 183.753L88.4082 184.704C85.2024 183.694 82.0573 182.548 78.9795 181.271L79.3623 180.35ZM167.02 181.271C163.942 182.548 160.797 183.694 157.591 184.704L157.291 183.753C160.469 182.752 163.587 181.615 166.638 180.35L167.02 181.271ZM61.7412 171.16C64.5306 172.941 67.4031 174.603 70.3506 176.141L70.1191 176.584L69.8887 177.024C66.9151 175.473 64.0171 173.797 61.2031 172.001L61.7412 171.16ZM184.796 172.001C181.982 173.797 179.084 175.473 176.11 177.024L175.881 176.584L175.649 176.141C178.597 174.603 181.469 172.941 184.259 171.16L184.796 172.001ZM123 -25C137.757 -25 151.767 -21.801 164.376 -16.0625C166.114 -19.0166 169.325 -21 173 -21C178.523 -21 183 -16.5228 183 -11C183 -9.1766 182.509 -7.46901 181.656 -5.99707C204.172 10.337 219.609 35.8289 222.503 65.0117C227.792 65.2737 232 69.6458 232 75C232 80.3545 227.792 84.7258 222.502 84.9873C219.608 114.17 204.172 139.661 181.656 155.995C182.509 157.467 183 159.176 183 161C183 166.523 178.523 171 173 171C169.324 171 166.114 169.015 164.376 166.061C151.766 171.799 137.757 175 123 175C108.242 175 94.2327 171.8 81.623 166.062C79.8852 169.016 76.6754 171 73 171C67.4771 171 63 166.523 63 161C63 159.176 63.4898 157.467 64.3428 155.995C41.8272 139.661 26.3898 114.17 23.4961 84.9873C18.2074 84.7248 14 80.3539 14 75C14 69.6461 18.2074 65.2742 23.4961 65.0117C26.39 35.8294 41.8264 10.337 64.3418 -5.99707C63.4895 -7.46882 63 -9.17695 63 -11C63 -16.5228 67.4771 -21 73 -21C76.6748 -21 79.885 -19.0169 81.623 -16.0635C94.2325 -21.8021 108.243 -25 123 -25ZM82.9785 161.625C82.9223 162.536 82.7432 163.414 82.459 164.243C94.8143 169.865 108.541 173 123 173C137.459 173 151.185 169.865 163.54 164.243C163.256 163.414 163.078 162.536 163.021 161.625H82.9785ZM73 153C72.2577 153 71.5395 153.103 70.8574 153.292C70.3155 153.442 69.7967 153.647 69.3076 153.902C68.3895 154.381 67.5771 155.033 66.9111 155.814C66.8627 155.871 66.8145 155.928 66.7676 155.986C65.6626 157.358 65 159.101 65 161C65 165.418 68.5817 169 73 169C75.8722 169 78.3888 167.485 79.7998 165.212C80.0572 164.797 80.2776 164.358 80.457 163.897C80.7345 163.184 80.9121 162.421 80.9736 161.625C80.9807 161.534 80.9858 161.442 80.9902 161.351C80.9952 161.234 81 161.118 81 161C81 160.763 80.987 160.529 80.9668 160.297C80.9474 160.078 80.9204 159.862 80.8838 159.649C80.8803 159.629 80.8766 159.609 80.873 159.589C80.8272 159.334 80.7703 159.082 80.7012 158.836C80.2592 157.26 79.3482 155.881 78.126 154.859C78.0807 154.822 78.0344 154.785 77.9883 154.748C77.9542 154.721 77.9202 154.694 77.8857 154.667C77.8085 154.607 77.7299 154.549 77.6504 154.492C76.3397 153.554 74.7349 153 73 153ZM173 153C171.253 153 169.638 153.561 168.322 154.512C168.244 154.568 168.167 154.625 168.091 154.685C166.21 156.148 165 158.432 165 161C165 162.075 165.213 163.1 165.598 164.036C165.621 164.093 165.645 164.149 165.67 164.205C165.741 164.368 165.818 164.528 165.899 164.685C165.936 164.755 165.973 164.824 166.012 164.893C167.379 167.342 169.995 169 173 169C177.418 169 181 165.418 181 161C181 159.385 180.519 157.883 179.696 156.626C179.584 156.455 179.467 156.288 179.343 156.127C179.312 156.087 179.281 156.049 179.25 156.01C179.18 155.923 179.109 155.838 179.036 155.754C179.025 155.741 179.014 155.728 179.003 155.715C178.951 155.656 178.898 155.597 178.845 155.54V155.539C178.396 155.059 177.888 154.635 177.334 154.277C177.01 154.068 176.67 153.881 176.316 153.72C176.295 153.71 176.273 153.7 176.251 153.69C175.896 153.532 175.528 153.4 175.148 153.294C174.465 153.104 173.744 153 173 153ZM45.9824 159.051C48.4256 161.291 50.9677 163.426 53.5996 165.448L52.9902 166.24C50.3352 164.2 47.7723 162.046 45.3076 159.786L45.6445 159.419L45.9824 159.051ZM200.355 159.419L200.691 159.786C198.227 162.046 195.664 164.2 193.009 166.24L192.4 165.448C195.032 163.426 197.574 161.291 200.018 159.051L200.355 159.419ZM95.4834 124.831C101.396 128.396 106.34 133.363 109.876 139.294L110.226 139.894C113.682 145.917 115.587 152.697 115.781 159.625H131.022C131.248 152.73 133.17 145.988 136.626 140.001L136.977 139.406C140.393 133.706 145.112 128.902 150.741 125.384L129.468 88.5361C127.509 89.4736 125.316 90 123 90C120.662 90 118.45 89.4646 116.478 88.5107L95.4834 124.831ZM92.0049 130.849C97.1195 133.986 101.393 138.356 104.425 143.566L104.717 144.079C107.294 148.677 108.839 153.769 109.254 158.994L113.759 159.02C113.475 152.652 111.673 146.434 108.491 140.889C105.111 134.998 100.288 130.07 94.4824 126.562L92.0049 130.849ZM151.741 127.116C146.221 130.58 141.624 135.344 138.358 141.001C135.182 146.503 133.367 152.674 133.051 159H137.091C137.474 153.653 139.079 148.45 141.802 143.786L142.101 143.284C145.074 138.38 149.204 134.257 154.137 131.265L151.741 127.116ZM154.637 132.13C149.686 135.137 145.57 139.316 142.665 144.29C140.031 148.801 138.475 153.831 138.094 159H163.2C163.677 156.653 164.976 154.605 166.783 153.169L154.637 132.13ZM79.1377 153.107C80.9458 154.516 82.2561 156.53 82.7646 158.847L108.249 158.988C107.82 153.748 106.223 148.645 103.56 144.069C100.615 139.01 96.4679 134.764 91.5049 131.715L79.1377 153.107ZM28.4414 83.959C27.5295 84.4119 26.5397 84.7311 25.4961 84.8877C28.3572 113.443 43.4758 138.383 65.5137 154.372C66.2108 153.585 67.0298 152.91 67.9414 152.374L28.4414 83.959ZM178.335 152.543C179.136 153.049 179.86 153.666 180.485 154.372C202.524 138.383 217.641 113.444 220.502 84.8877C219.569 84.7476 218.68 84.4766 217.851 84.0977L178.335 152.543ZM32.5518 144.4C34.5743 147.032 36.7093 149.574 38.9492 152.018L38.5801 152.354L38.2129 152.691C35.9533 150.227 33.7991 147.664 31.7588 145.009L32.5518 144.4ZM214.24 145.009C212.2 147.664 210.046 150.227 207.786 152.691L207.419 152.355V152.354L207.051 152.018C209.291 149.574 211.426 147.032 213.448 144.4L214.24 145.009ZM172.876 127C167.108 127.02 161.439 128.445 156.374 131.14L168.468 152.087C169.829 151.394 171.368 151 173 151C174.106 151 175.169 151.181 176.163 151.513L188.308 130.477C183.51 128.176 178.232 126.981 172.876 127ZM73.4805 126.551C68.1401 126.525 62.892 127.744 58.1426 130.099L70.5547 151.302C71.3373 151.105 72.1564 151 73 151C74.5969 151 76.1053 151.376 77.4443 152.042L89.7725 130.716C84.7501 128.011 79.1558 126.579 73.4805 126.551ZM21.8594 127.649C23.3969 130.597 25.0591 133.469 26.8398 136.259L25.998 136.796C24.2017 133.982 22.5257 131.084 20.9746 128.11L21.416 127.881L21.8594 127.649ZM225.024 128.11C223.473 131.084 221.797 133.982 220.001 136.796L219.16 136.259C220.941 133.469 222.603 130.597 224.141 127.649L225.024 128.11ZM172.995 121C166.153 121.001 159.427 122.756 153.462 126.096L155.874 130.273C161.091 127.491 166.931 126.021 172.873 126L173.463 126.003C178.793 126.07 184.034 127.304 188.81 129.606L191.238 125.4C185.601 122.512 179.348 120.999 172.995 121ZM73.6709 120.8C67.2785 120.82 60.9938 122.371 55.3398 125.312L57.6357 129.234C62.5415 126.79 67.9658 125.524 73.4854 125.551L74.0693 125.559C79.7188 125.679 85.2725 127.153 90.2725 129.851L92.7451 125.572C86.8886 122.422 80.3332 120.779 73.6709 120.8ZM137.966 76C137.647 80.8367 135.037 85.0458 131.21 87.5537L152.463 124.364L152.599 124.288C158.834 120.823 165.854 119.001 172.995 119L173.686 119.006C180.285 119.114 186.761 120.776 192.591 123.851L200.042 110.943C194.535 107.486 189.899 102.794 186.509 97.2314L186.153 96.6367C182.521 90.4487 180.535 83.4357 180.382 76.2695L180.379 76H137.966ZM66.3643 76.2695C66.2112 83.4357 64.2255 90.4487 60.5928 96.6367L60.2373 97.2314C56.7909 102.886 52.0567 107.64 46.4287 111.113L53.7939 123.869C59.8904 120.567 66.7171 118.821 73.665 118.799L74.3604 118.803C81.1365 118.893 87.7878 120.623 93.7471 123.84L114.74 87.5215C110.94 85.0098 108.351 80.8158 108.034 76H66.3672L66.3643 76.2695ZM14.2471 109.291C15.2481 112.469 16.3852 115.587 17.6504 118.638L16.7275 119.02C15.4512 115.942 14.3048 112.797 13.2949 109.591L13.7705 109.441L14.2471 109.291ZM232.229 109.441L232.704 109.591C231.694 112.797 230.548 115.942 229.271 119.02L228.35 118.638C229.615 115.587 230.752 112.469 231.753 109.291L232.229 109.441ZM59.3643 76C59.2809 81.9288 57.7408 87.7665 54.874 92.9893L54.5889 93.499C51.8766 98.2581 48.1311 102.34 43.6426 105.438L45.7539 109.179C51.1349 105.775 55.635 101.131 58.8682 95.624C62.3662 89.6654 64.258 82.9038 64.3662 76H59.3643ZM182.38 76C182.488 82.9038 184.38 89.6654 187.878 95.624C191.111 101.131 195.611 105.775 200.992 109.179L203.276 105.131C198.622 102.179 194.717 98.1633 191.883 93.3916L191.589 92.8867C188.655 87.755 187.042 81.9511 186.898 76H182.38ZM33.9502 76C33.6963 78.5569 32.4782 80.8288 30.666 82.4512L43.1484 104.562C47.6348 101.449 51.3552 97.3234 53.998 92.5088C56.7842 87.4331 58.281 81.7601 58.3643 76H33.9502ZM187.899 76C188.048 81.9685 189.714 87.7818 192.742 92.8809C195.487 97.5028 199.266 101.394 203.769 104.259L215.839 82.874C213.749 81.2367 212.327 78.7877 212.05 76H187.899ZM9.96387 89.8906C10.3959 93.2025 10.9698 96.4696 11.6797 99.6855L11.1904 99.793L11.1914 99.7939L10.7041 99.9004C9.98793 96.656 9.40843 93.3604 8.97266 90.0195L9.46777 89.9551L9.96387 89.8906ZM237.026 90.0195C236.591 93.3604 236.011 96.656 235.295 99.9004L234.809 99.7939V99.793L234.32 99.6855C235.03 96.4696 235.604 93.2025 236.036 89.8906L237.026 90.0195ZM123 62C122.753 62 122.508 62.0069 122.265 62.0205C122.224 62.0228 122.184 62.0257 122.144 62.0283C122.096 62.0314 122.048 62.0345 122 62.0381L121.848 62.0508C121.823 62.053 121.798 62.0553 121.773 62.0576C121.708 62.0638 121.642 62.07 121.577 62.0771C121.516 62.0838 121.456 62.0912 121.396 62.0986C121.321 62.1077 121.248 62.1176 121.174 62.1279C121.141 62.1326 121.108 62.1367 121.075 62.1416C120.712 62.1955 120.354 62.2644 120.001 62.3477C119.99 62.3503 119.979 62.3528 119.968 62.3555C119.739 62.4101 119.513 62.4706 119.289 62.5371C119.281 62.5395 119.273 62.5425 119.265 62.5449C119.043 62.6113 118.824 62.6831 118.607 62.7607C118.592 62.7661 118.577 62.771 118.562 62.7764C118.23 62.8972 117.904 63.0321 117.584 63.1787C117.561 63.1893 117.538 63.2002 117.515 63.2109C117.427 63.252 117.339 63.294 117.252 63.3369C117.246 63.34 117.24 63.3436 117.233 63.3467C116.633 63.6445 116.058 63.9866 115.515 64.3701V64.3691C115.09 64.6684 114.685 64.9931 114.301 65.3398C114.275 65.3634 114.249 65.3873 114.223 65.4111C113.934 65.6759 113.656 65.9526 113.392 66.2422C113.376 66.2597 113.361 66.2783 113.345 66.2959C113.083 66.5857 112.834 66.8867 112.6 67.1992C112.587 67.2158 112.575 67.2324 112.562 67.249C112.52 67.3064 112.477 67.3638 112.436 67.4219C112.409 67.4585 112.383 67.4954 112.357 67.5322C112.326 67.5764 112.295 67.6205 112.265 67.665C112.23 67.7161 112.195 67.7677 112.161 67.8193C112.13 67.8657 112.1 67.9122 112.069 67.959C112.036 68.0103 112.004 68.0624 111.972 68.1143C111.951 68.1477 111.93 68.1812 111.909 68.2148C111.874 68.2721 111.84 68.3299 111.806 68.3877C111.7 68.5661 111.598 68.7469 111.501 68.9307C111.47 68.9891 111.439 69.0475 111.409 69.1064C111.329 69.2637 111.253 69.4231 111.179 69.584C111.159 69.6275 111.139 69.671 111.119 69.7148C111.101 69.755 111.084 69.7955 111.066 69.8359C111.038 69.9024 111.009 69.9691 110.981 70.0361C110.964 70.0778 110.946 70.1193 110.93 70.1611C110.902 70.2291 110.877 70.2977 110.851 70.3662C110.836 70.4053 110.82 70.4442 110.806 70.4834C110.78 70.5524 110.756 70.6219 110.731 70.6914C110.723 70.7168 110.714 70.7422 110.705 70.7676C110.59 71.1022 110.487 71.4427 110.399 71.7891C110.387 71.8394 110.374 71.8899 110.362 71.9404C110.349 71.9963 110.336 72.0523 110.323 72.1084C110.313 72.1549 110.302 72.2014 110.292 72.248C110.249 72.4453 110.212 72.6443 110.179 72.8447C110.174 72.8717 110.169 72.8987 110.165 72.9258C110.155 72.991 110.145 73.0565 110.136 73.1221C110.127 73.1855 110.117 73.2488 110.108 73.3125C110.102 73.3625 110.097 73.4127 110.091 73.4629C110.083 73.5298 110.074 73.5968 110.067 73.6641C110.023 74.1033 110 74.549 110 75C110 75.3365 110.013 75.67 110.038 76C110.05 76.1505 110.065 76.3002 110.081 76.4492C110.091 76.5416 110.102 76.6338 110.114 76.7256C110.116 76.7376 110.118 76.7497 110.119 76.7617C110.133 76.8663 110.148 76.9705 110.165 77.0742C110.172 77.117 110.179 77.1596 110.187 77.2021C110.22 77.398 110.258 77.5924 110.3 77.7852C110.309 77.8282 110.318 77.8712 110.328 77.9141C110.378 78.131 110.433 78.3459 110.493 78.5586C110.502 78.5883 110.511 78.6178 110.52 78.6475C110.609 78.9551 110.71 79.2579 110.821 79.5557C110.839 79.602 110.856 79.6482 110.874 79.6943C110.942 79.8697 111.014 80.0432 111.089 80.2148C111.169 80.3987 111.254 80.5805 111.343 80.7598C111.422 80.9193 111.505 81.0767 111.59 81.2324C111.621 81.29 111.653 81.3473 111.686 81.4043C111.702 81.433 111.718 81.4617 111.734 81.4902C111.769 81.5494 111.803 81.6084 111.838 81.667C111.879 81.7365 111.922 81.8054 111.965 81.874C111.98 81.8981 111.995 81.9223 112.01 81.9463C112.195 82.239 112.392 82.5236 112.6 82.7998C112.71 82.9469 112.824 83.0912 112.94 83.2334C112.958 83.2552 112.976 83.2771 112.994 83.2988C113.105 83.4328 113.22 83.564 113.336 83.6934C113.369 83.7297 113.401 83.7658 113.435 83.8018C113.68 84.0688 113.937 84.3256 114.204 84.5713C114.231 84.5956 114.257 84.6204 114.283 84.6445C114.414 84.7629 114.548 84.8781 114.684 84.9912C114.712 85.0152 114.742 85.0388 114.771 85.0625C114.915 85.1805 115.061 85.2963 115.21 85.4082C115.248 85.437 115.287 85.4648 115.326 85.4932C115.371 85.5261 115.416 85.5595 115.461 85.5918C117.015 86.7001 118.824 87.4739 120.782 87.8105C120.817 87.8165 120.852 87.8224 120.887 87.8281C120.968 87.8413 121.049 87.8535 121.13 87.8652C121.169 87.8709 121.209 87.8765 121.248 87.8818C121.314 87.8908 121.381 87.8993 121.447 87.9072C121.501 87.9136 121.555 87.9191 121.608 87.9248C121.668 87.9311 121.727 87.9369 121.787 87.9424C121.842 87.9474 121.896 87.9526 121.951 87.957C122.032 87.9635 122.113 87.9687 122.194 87.9736C122.223 87.9754 122.252 87.9779 122.28 87.9795C122.376 87.9847 122.472 87.989 122.568 87.9922C122.593 87.993 122.617 87.9944 122.642 87.9951C122.761 87.9983 122.88 88 123 88C123.12 88 123.24 87.9984 123.359 87.9951C123.37 87.9948 123.382 87.9935 123.393 87.9932C123.611 87.9867 123.828 87.9742 124.044 87.957C124.102 87.9524 124.16 87.9478 124.218 87.9424C124.269 87.9376 124.32 87.9331 124.371 87.9277C124.428 87.9217 124.485 87.9149 124.542 87.9082C124.621 87.8989 124.7 87.8887 124.778 87.8779C124.791 87.8762 124.804 87.8748 124.816 87.873C124.91 87.86 125.002 87.846 125.095 87.8311C125.132 87.825 125.169 87.8188 125.206 87.8125C127.296 87.4552 129.215 86.5985 130.838 85.3701C130.952 85.2838 131.064 85.1945 131.175 85.1045C131.226 85.0633 131.277 85.0224 131.327 84.9805C131.443 84.8837 131.557 84.7853 131.67 84.6846C131.725 84.6349 131.779 84.5838 131.834 84.5332C131.948 84.4272 132.062 84.3209 132.173 84.2109C132.199 84.1848 132.224 84.1572 132.25 84.1309C132.351 84.0286 132.45 83.9249 132.548 83.8193C132.585 83.7787 132.623 83.7384 132.66 83.6973C132.763 83.5826 132.865 83.466 132.964 83.3477C133.007 83.2957 133.05 83.243 133.093 83.1904C133.193 83.067 133.292 82.9425 133.388 82.8154C133.605 82.5265 133.812 82.2289 134.006 81.9219C134.016 81.9064 134.025 81.8905 134.034 81.875C134.138 81.7093 134.237 81.5407 134.333 81.3701C134.352 81.3357 134.372 81.3012 134.391 81.2666C134.424 81.206 134.457 81.1451 134.489 81.084C134.51 81.0449 134.531 81.0061 134.552 80.9668C134.662 80.7536 134.768 80.5373 134.866 80.3174C134.869 80.3117 134.87 80.3055 134.873 80.2998C135.111 79.767 135.315 79.2153 135.48 78.6475C135.487 78.625 135.494 78.6026 135.5 78.5801C135.598 78.237 135.682 77.8882 135.752 77.5342C135.758 77.5039 135.764 77.4737 135.77 77.4434C135.784 77.3668 135.797 77.2899 135.811 77.2129C135.819 77.1664 135.827 77.1199 135.834 77.0732C135.846 76.9992 135.858 76.925 135.868 76.8506C135.875 76.8028 135.881 76.755 135.888 76.707C135.961 76.1484 136 75.5787 136 75C136 74.2861 135.941 73.5859 135.83 72.9033C135.828 72.8916 135.826 72.8799 135.824 72.8682C135.789 72.6541 135.749 72.4418 135.703 72.2314C135.695 72.1943 135.687 72.1572 135.679 72.1201C135.55 71.553 135.385 71.0001 135.186 70.4639C135.175 70.4352 135.164 70.4065 135.153 70.3779C135.077 70.1766 134.995 69.9777 134.909 69.7812C134.899 69.7584 134.889 69.7356 134.879 69.7129C134.851 69.6497 134.821 69.5871 134.792 69.5244C134.768 69.4733 134.745 69.4219 134.721 69.3711C134.699 69.3253 134.676 69.2799 134.653 69.2344C134.611 69.1491 134.568 69.0646 134.523 68.9805C134.44 68.8211 134.354 68.6632 134.265 68.5078C134.25 68.4819 134.234 68.4565 134.219 68.4307C134.054 68.1505 133.881 67.8766 133.696 67.6104C133.678 67.5842 133.66 67.5582 133.642 67.5322C133.6 67.4725 133.557 67.4135 133.514 67.3545C133.495 67.3289 133.477 67.3028 133.458 67.2773C133.43 67.2389 133.4 67.2012 133.371 67.1631C133.269 67.0283 133.165 66.8953 133.058 66.7646C133.031 66.7325 133.004 66.7009 132.978 66.6689C132.884 66.5566 132.788 66.446 132.69 66.3369C132.655 66.2969 132.619 66.2564 132.583 66.2168C132.473 66.097 132.36 65.9799 132.246 65.8643C132.212 65.8297 132.178 65.7949 132.144 65.7607C132.025 65.643 131.904 65.5272 131.78 65.4141C131.748 65.3842 131.715 65.3548 131.682 65.3252C131.55 65.207 131.417 65.0904 131.28 64.9775C131.266 64.9659 131.251 64.955 131.237 64.9434C131.096 64.8274 130.952 64.7145 130.806 64.6045C130.79 64.5931 130.776 64.5807 130.761 64.5693C130.721 64.5401 130.681 64.5122 130.642 64.4834C130.04 64.0452 129.399 63.6573 128.725 63.3262H128.726C128.716 63.3217 128.707 63.317 128.698 63.3125C128.631 63.2798 128.564 63.2484 128.496 63.2168C128.454 63.1973 128.413 63.1772 128.371 63.1582C128.054 63.0144 127.731 62.8832 127.401 62.7646C127.391 62.761 127.381 62.7575 127.371 62.7539C127.16 62.6786 126.946 62.6085 126.73 62.5439C126.706 62.5367 126.682 62.5295 126.658 62.5225C126.451 62.4618 126.242 62.4059 126.03 62.3555C126.015 62.3519 126 62.3483 125.985 62.3447L125.936 62.333C125.722 62.2838 125.507 62.2398 125.29 62.2012C125.246 62.1934 125.203 62.186 125.159 62.1787C125.076 62.1648 124.993 62.1519 124.909 62.1396C124.885 62.1361 124.862 62.1323 124.838 62.1289C124.752 62.1167 124.665 62.1062 124.578 62.0957C124.53 62.0898 124.481 62.0844 124.433 62.0791C124.364 62.0716 124.296 62.064 124.228 62.0576C124.178 62.053 124.129 62.049 124.08 62.0449C123.991 62.0376 123.902 62.0309 123.812 62.0254C123.791 62.0241 123.77 62.0227 123.748 62.0215C123.5 62.0074 123.251 62 123 62ZM24 67C19.5817 67 16 70.5817 16 75C16 79.1873 19.2172 82.6209 23.3145 82.9688C23.4255 82.9782 23.5372 82.9848 23.6494 82.9902C23.7657 82.9953 23.8825 83 24 83C25.2315 83 26.3974 82.7207 27.4395 82.2236C27.624 82.1356 27.8041 82.0398 27.9805 81.9385C30.1078 80.7154 31.6182 78.544 31.9355 76C31.9542 75.8505 31.9677 75.6997 31.9785 75.5479C31.9908 75.3668 32 75.1842 32 75C32 72.5437 30.8918 70.3474 29.1494 68.8799C28.9719 68.7306 28.7879 68.5887 28.5977 68.4551C28.4873 68.3774 28.3751 68.3026 28.2607 68.2305C28.0494 68.0974 27.8314 67.9738 27.6074 67.8604V67.8594C26.5233 67.3106 25.2981 67 24 67ZM222 67C217.92 67 214.557 70.0538 214.064 74C214.047 74.1431 214.032 74.2873 214.021 74.4326C214.008 74.6201 214 74.8092 214 75C214 75.1287 214.004 75.2566 214.01 75.3838C214.011 75.4001 214.012 75.4163 214.013 75.4326C214.015 75.4711 214.018 75.5095 214.021 75.5479C214.031 75.6998 214.046 75.8505 214.064 76C214.319 78.0421 215.342 79.8439 216.837 81.1084C216.9 81.1622 216.965 81.2148 217.03 81.2666C217.05 81.2825 217.071 81.2978 217.091 81.3135C217.385 81.5426 217.695 81.7516 218.021 81.9385C218.039 81.9489 218.057 81.9594 218.075 81.9697C218.146 82.0096 218.217 82.0482 218.289 82.0859C218.316 82.0999 218.342 82.1142 218.369 82.1279C218.446 82.167 218.523 82.2052 218.601 82.2422C219.252 82.5484 219.951 82.7693 220.684 82.8906H220.685C220.781 82.9066 220.879 82.92 220.977 82.9326C221.312 82.9754 221.653 83 222 83C222.117 83 222.232 82.9952 222.348 82.9902C222.461 82.9848 222.573 82.9782 222.685 82.9688H222.684C226.782 82.6218 230 79.1879 230 75C230 70.5817 226.418 67 222 67ZM8.60742 70H8.60645L9.10645 70.0215C9.03553 71.672 9 73.3319 9 75C9 76.6681 9.03553 78.328 9.10645 79.9785L8.10938 80.0205C8.03787 78.3559 8 76.6822 8 75C8 73.3175 8.03784 71.6434 8.10938 69.9785L8.60742 70ZM237.89 69.9785C237.961 71.6435 238 73.3175 238 75C238 76.6822 237.961 78.3559 237.89 80.0205L236.894 79.9785C236.964 78.328 237 76.6681 237 75C237 73.3319 236.964 71.672 236.894 70.0215L237.393 70L237.89 69.9785ZM31.0117 67.8721C32.6326 69.4667 33.7128 71.609 33.9502 74H58.3379C58.0988 68.3829 56.5123 62.9184 53.709 58.0771C51.0884 53.5516 47.4814 49.7057 43.1689 46.8164L31.0117 67.8721ZM43.6709 45.9473C48.135 48.9259 51.867 52.8992 54.5752 57.5762L54.8604 58.0791C57.5743 62.9477 59.1062 68.4013 59.3379 74H64.3477C64.1241 67.4884 62.3144 61.1211 59.0625 55.457C55.8827 49.9187 51.428 45.2306 46.0801 41.7754L43.6709 45.9473ZM93.2441 25.7959C87.3669 29.0295 80.7944 30.8145 74.0732 30.9863L73.3936 30.998C66.6061 31.0617 59.9044 29.4787 53.8623 26.3857L46.2715 39.5342C52.2849 43.2085 57.2825 48.3398 60.7969 54.4609L61.1377 55.0664C64.349 60.8804 66.1327 67.3699 66.3496 74H108.034C108.345 69.2812 110.837 65.159 114.512 62.6318L93.2441 25.7959ZM131.451 62.6064C135.147 65.1313 137.654 69.2654 137.966 74H180.396C180.613 67.3699 182.397 60.8804 185.608 55.0664L185.949 54.4609C189.41 48.4332 194.308 43.364 200.199 39.7021L192.652 26.6299C186.738 29.5617 180.213 31.06 173.606 30.998L172.927 30.9863C165.909 30.8069 159.052 28.8703 152.98 25.3604L131.451 62.6064ZM200.666 41.7754C195.318 45.2306 190.863 49.9187 187.684 55.457C184.432 61.1211 182.622 67.4884 182.398 74H186.906C187.085 68.2711 188.622 62.6434 191.4 57.5928L191.688 57.0781C194.402 52.3291 198.144 48.258 202.625 45.168L200.666 41.7754ZM203.127 46.0381C198.643 49.1455 194.922 53.2651 192.276 58.0752C189.579 62.9783 188.085 68.4402 187.906 74H212.05C212.31 71.3776 213.584 69.0542 215.474 67.4248L203.127 46.0381ZM65.5127 -4.37402C43.4749 11.6147 28.3574 36.5558 25.4961 65.1113C26.6038 65.2775 27.6509 65.6277 28.6084 66.126L64.9492 3.18262L67.7637 -2.48047C66.9224 -2.99861 66.1645 -3.638 65.5127 -4.37402ZM180.485 -4.37305C179.893 -3.70403 179.212 -3.11573 178.461 -2.625L183.121 6.12012L217.68 65.9785C218.557 65.5574 219.506 65.261 220.503 65.1113C217.641 36.5557 202.524 11.6157 180.485 -4.37305ZM114.962 -9.25C114.685 -2.60547 112.835 3.88751 109.551 9.68945L109.211 10.2783C105.727 16.2081 100.837 21.1912 94.9736 24.791L116.231 61.6104C118.265 60.5804 120.565 60 123 60C125.419 60 127.705 60.5734 129.729 61.5908L151.272 24.3193C145.743 20.7612 141.123 15.9524 137.789 10.2783L137.449 9.68945C134.165 3.88751 132.315 -2.60547 132.038 -9.25H114.962ZM11.1914 50.2061H11.1904L11.6797 50.3145C10.9698 53.5304 10.3959 56.7976 9.96387 60.1094L9.46777 60.0439L8.97266 59.9795C9.40846 56.6386 9.9879 53.343 10.7041 50.0986L11.1914 50.2061ZM235.295 50.0986C236.011 53.343 236.591 56.6386 237.026 59.9795L236.532 60.0449L236.531 60.0439L236.036 60.1094C235.604 56.7975 235.03 53.5304 234.32 50.3145L234.809 50.2061L235.295 50.0986ZM17.6504 31.3623C16.3852 34.4132 15.2481 37.5312 14.2471 40.709L13.2949 40.4082C14.3048 37.2024 15.4512 34.0573 16.7275 30.9795L17.6504 31.3623ZM229.271 30.9795C230.548 34.0573 231.694 37.2024 232.704 40.4082L231.753 40.709C230.752 37.5312 229.615 34.4132 228.35 31.3623L229.271 30.9795ZM89.999 20.1758C85.0242 23.048 79.4297 24.6923 73.6807 24.9609L73.1064 24.9834C67.8006 25.1466 62.5298 24.1333 57.6699 22.0244L55.9805 25.1973C61.6089 27.8437 67.7856 29.1466 74.0215 28.9873C80.409 28.8241 86.6558 27.1307 92.2441 24.0635L89.999 20.1758ZM153.981 23.6289C159.764 26.9717 166.295 28.8165 172.979 28.9873C179.214 29.1466 185.391 27.8437 191.02 25.1973L189.044 21.4902C184.128 23.904 178.717 25.1702 173.22 25.1768L172.629 25.1729C166.701 25.0826 160.886 23.5294 155.702 20.6514L153.981 23.6289ZM156.203 19.7861C161.406 22.6715 167.263 24.1838 173.219 24.1768C178.552 24.1704 183.802 22.9436 188.573 20.6064L181.38 7.10449L176.364 -1.58203C175.313 -1.20638 174.181 -1 173 -1C171.485 -1 170.05 -1.33932 168.763 -1.94238L156.203 19.7861ZM77.2305 -1.93945C75.9453 -1.33837 74.5125 -1 73 -1C72.0118 -1 71.0578 -1.14606 70.1562 -1.41309L58.1426 21.1377C63.0174 23.2398 68.3143 24.2105 73.6338 23.9619C79.2232 23.7007 84.6623 22.1021 89.499 19.3096L77.2305 -1.93945ZM107.943 -9C107.641 -3.56448 106.11 1.74117 103.453 6.5127L103.17 7.01172C100.349 11.8939 96.4198 16.0422 91.7031 19.127L93.9727 23.0576C99.7204 19.5182 104.483 14.5826 107.811 8.7041C110.883 3.27555 112.638 -2.78826 112.949 -9H107.943ZM134.051 -9C134.362 -2.78826 136.117 3.27555 139.189 8.7041C142.371 14.3246 146.864 19.0844 152.275 22.585L153.982 19.6318C149.079 16.5414 144.987 12.3088 142.063 7.28711L141.771 6.77441C139.058 1.93266 137.504 -3.4666 137.224 -9H134.051ZM26.8398 13.7412C25.0591 16.5306 23.3969 19.4031 21.8594 22.3506L20.9746 21.8887C22.5257 18.9151 24.2016 16.0171 25.998 13.2031L26.8398 13.7412ZM220.001 13.2031C221.797 16.0171 223.473 18.9151 225.024 21.8887L224.141 22.3506C222.603 19.4031 220.941 16.5306 219.16 13.7412L220.001 13.2031ZM138.226 -9C138.515 -3.44749 140.123 1.96516 142.928 6.78418C145.763 11.6553 149.73 15.7628 154.482 18.7656L167.044 -2.9668C165.101 -4.40985 163.699 -6.541 163.2 -9H138.226ZM82.7998 -9C82.3001 -6.53835 80.8956 -4.40602 78.9492 -2.96289L91.2031 18.2598C95.9229 15.1621 99.8283 10.9667 102.579 6.02637C105.153 1.40363 106.641 -3.73484 106.942 -9H82.7998ZM38.5811 -2.35547H38.5801L38.9492 -2.01758C36.7092 0.425625 34.5743 2.9677 32.5518 5.59961L31.7588 4.99023C33.7991 2.33517 35.9533 -0.227737 38.2129 -2.69238L38.5811 -2.35547ZM207.786 -2.69238C210.046 -0.22773 212.2 2.33517 214.24 4.99023L213.448 5.59961C211.426 2.9677 209.291 0.425625 207.051 -2.01758L207.419 -2.35547L207.786 -2.69238ZM73 -19C68.5817 -19 65 -15.4183 65 -11C65 -9.37613 65.485 -7.86607 66.3164 -6.60449C66.3594 -6.53934 66.4034 -6.47492 66.4482 -6.41113C66.5223 -6.30566 66.5988 -6.20224 66.6777 -6.10059C66.7533 -6.00336 66.8312 -5.90805 66.9111 -5.81445C67.4176 -5.22035 68.0087 -4.70145 68.667 -4.27637C69.3116 -3.86011 70.0194 -3.53449 70.7734 -3.31641C71.4804 -3.11189 72.2271 -3 73 -3C74.1481 -3 75.2386 -3.24417 76.2256 -3.67969C76.8422 -3.95179 77.4173 -4.29938 77.9404 -4.71094C79.2988 -5.77946 80.3044 -7.27618 80.748 -9C80.7524 -9.01682 80.7555 -9.03392 80.7598 -9.05078C80.916 -9.67478 81 -10.3276 81 -11C81 -11.8346 80.8718 -12.6391 80.6348 -13.3955V-13.3945C80.6283 -13.4152 80.6209 -13.4355 80.6143 -13.4561C80.5558 -13.6376 80.4898 -13.8156 80.4189 -13.9912C80.3816 -14.0835 80.3434 -14.1751 80.3027 -14.2656C80.2888 -14.2966 80.275 -14.3276 80.2607 -14.3584C80.1238 -14.6532 79.9701 -14.9386 79.7998 -15.2129V-15.2139C78.3886 -17.4862 75.8716 -19 73 -19ZM173 -19C170.128 -19 167.61 -17.4859 166.199 -15.2129C166.167 -15.1603 166.135 -15.1071 166.104 -15.0537C165.443 -13.932 165.049 -12.6357 165.007 -11.25C165.004 -11.167 165 -11.0837 165 -11C165 -8.44912 166.195 -6.17875 168.055 -4.71387C168.57 -4.30818 169.135 -3.96499 169.741 -3.69434C170.737 -3.24955 171.839 -3 173 -3C173.816 -3 174.602 -3.12278 175.344 -3.34961C175.449 -3.38192 175.554 -3.41756 175.657 -3.4541C175.88 -3.53238 176.097 -3.62091 176.31 -3.71777C176.533 -3.8197 176.751 -3.93141 176.963 -4.05273C176.986 -4.06613 177.01 -4.07915 177.033 -4.09277C177.198 -4.18933 177.36 -4.29077 177.517 -4.39844C178.001 -4.73014 178.445 -5.11369 178.845 -5.54102C179.171 -5.89017 179.465 -6.26889 179.726 -6.67188C179.746 -6.70352 179.767 -6.73466 179.787 -6.7666C179.868 -6.89605 179.946 -7.02775 180.02 -7.16211C180.644 -8.3016 181 -9.60903 181 -11C181 -15.4183 177.418 -19 173 -19ZM53.5996 -15.4482C50.9677 -13.4257 48.4256 -11.2907 45.9824 -9.05078L45.3076 -9.78711C47.7723 -12.0467 50.3352 -14.2009 52.9902 -16.2412L53.5996 -15.4482ZM193.009 -16.2412C195.664 -14.2009 198.227 -12.0467 200.691 -9.78711L200.018 -9.05078C197.574 -11.2908 195.032 -13.4257 192.4 -15.4482L193.009 -16.2412ZM123 -23C108.541 -23 94.8142 -19.8667 82.459 -14.2451C82.7824 -13.3022 82.9685 -12.2964 82.9941 -11.25H163.006C163.032 -12.2963 163.217 -13.3023 163.54 -14.2451C151.185 -19.8665 137.459 -23 123 -23ZM70.3506 -26.1406C67.4031 -24.6031 64.5306 -22.9409 61.7412 -21.1602L61.2031 -22.002C64.0171 -23.7984 66.9151 -25.4743 69.8887 -27.0254L70.3506 -26.1406ZM176.11 -27.0254C179.084 -25.4743 181.982 -23.7983 184.796 -22.002L184.259 -21.1602C181.469 -22.9409 178.597 -24.6031 175.649 -26.1406L176.11 -27.0254ZM88.709 -33.7529C85.5312 -32.7519 82.4132 -31.6148 79.3623 -30.3496L78.9795 -31.2725C82.0573 -32.5488 85.2024 -33.6952 88.4082 -34.7051L88.709 -33.7529ZM157.591 -34.7051C160.797 -33.6952 163.942 -32.5488 167.02 -31.2725L166.638 -30.3496C163.587 -31.6148 160.469 -32.7519 157.291 -33.7529L157.591 -34.7051ZM108.025 -38.6748L108.109 -38.0361C104.798 -37.6041 101.53 -37.0302 98.3145 -36.3203L98.2061 -36.8096V-36.8086L98.0986 -37.2959C101.343 -38.0121 104.639 -38.5915 107.979 -39.0273L108.025 -38.6748ZM138.02 -39.0273C141.36 -38.5916 144.656 -38.0121 147.9 -37.2959L147.794 -36.8086L147.793 -36.8096L147.686 -36.3203C144.47 -37.0302 141.202 -37.6041 137.891 -38.0361L137.975 -38.6748L138.02 -39.0273ZM123 -40C124.682 -40 126.356 -39.9621 128.021 -39.8906L127.979 -38.8936C126.328 -38.9645 124.668 -39 123 -39C121.332 -39 119.672 -38.9645 118.021 -38.8936L117.979 -39.8906C119.643 -39.9622 121.317 -40 123 -40Z" fill="url(#paint0_linear_155_240)" fill-opacity="0.22"/>
<path d="M57.9413 64.22L65.7893 81.356H61.4693L56.4773 68.852L57.9413 64.22ZM52.7813 79.748C52.6533 80.068 52.6293 80.34 52.7093 80.564C52.7893 80.788 52.9253 80.964 53.1173 81.092C53.3093 81.204 53.5013 81.26 53.6933 81.26H53.9093V81.5H48.7733V81.26C48.7733 81.26 48.8133 81.26 48.8933 81.26C48.9573 81.26 48.9893 81.26 48.9893 81.26C49.3573 81.26 49.7333 81.148 50.1173 80.924C50.5173 80.684 50.8453 80.292 51.1013 79.748H52.7813ZM57.9413 64.22L58.0373 67.148L52.0853 81.428H50.3333L56.5493 67.364C56.5973 67.268 56.6773 67.092 56.7893 66.836C56.9173 66.564 57.0453 66.26 57.1733 65.924C57.3173 65.588 57.4453 65.268 57.5573 64.964C57.6693 64.644 57.7253 64.396 57.7253 64.22H57.9413ZM60.4613 75.788V76.796H53.4053V75.788H60.4613ZM60.8213 79.748H65.0213C65.2933 80.292 65.6213 80.684 66.0053 80.924C66.3893 81.148 66.7653 81.26 67.1333 81.26C67.1333 81.26 67.1653 81.26 67.2293 81.26C67.2933 81.26 67.3253 81.26 67.3253 81.26V81.5H59.6933V81.26H59.9093C60.2293 81.26 60.5093 81.132 60.7493 80.876C60.9893 80.604 61.0133 80.228 60.8213 79.748ZM72.2644 67.1H74.5684C75.8644 67.1 76.9124 67.276 77.7124 67.628C78.5124 67.98 79.1124 68.46 79.5124 69.068C79.9124 69.66 80.1284 70.332 80.1604 71.084C80.1924 72.028 80.0004 72.852 79.5844 73.556C79.1844 74.26 78.6404 74.796 77.9524 75.164C77.2644 75.532 76.5124 75.7 75.6964 75.668C74.8804 75.62 74.0724 75.332 73.2724 74.804V74.588C73.2724 74.588 73.3524 74.588 73.5124 74.588C73.6884 74.588 73.9044 74.564 74.1604 74.516C74.4164 74.452 74.6804 74.34 74.9524 74.18C75.2404 74.02 75.5124 73.78 75.7684 73.46C76.0244 73.14 76.2244 72.708 76.3684 72.164C76.4164 71.972 76.4484 71.764 76.4644 71.54C76.4964 71.3 76.5044 71.092 76.4884 70.916C76.4724 70.036 76.2084 69.34 75.6964 68.828C75.2004 68.3 74.5044 68.036 73.6084 68.036H72.4804C72.4804 68.036 72.4644 67.964 72.4324 67.82C72.4004 67.66 72.3604 67.5 72.3124 67.34C72.2804 67.18 72.2644 67.1 72.2644 67.1ZM72.5284 67.1V81.5H69.0724V67.1H72.5284ZM69.1204 79.988L69.2164 81.5H67.4884V81.26C67.5044 81.26 67.5524 81.26 67.6324 81.26C67.7124 81.26 67.7604 81.26 67.7764 81.26C68.1284 81.26 68.4244 81.14 68.6644 80.9C68.9204 80.644 69.0564 80.34 69.0724 79.988H69.1204ZM69.1204 68.588H69.0724C69.0564 68.22 68.9204 67.924 68.6644 67.7C68.4244 67.46 68.1284 67.34 67.7764 67.34C67.7444 67.34 67.6884 67.34 67.6084 67.34C67.5444 67.34 67.4964 67.34 67.4644 67.34V67.1H69.2164L69.1204 68.588ZM72.4804 79.988H72.5284C72.5444 80.34 72.6724 80.644 72.9124 80.9C73.1524 81.14 73.4564 81.26 73.8244 81.26C73.8564 81.26 73.9044 81.26 73.9684 81.26C74.0484 81.26 74.0964 81.26 74.1124 81.26V81.5H72.3604L72.4804 79.988ZM86.3269 67.1H88.6309C89.9269 67.1 90.9749 67.276 91.7749 67.628C92.5749 67.98 93.1749 68.46 93.5749 69.068C93.9749 69.66 94.1909 70.332 94.2229 71.084C94.2549 72.028 94.0629 72.852 93.6469 73.556C93.2469 74.26 92.7029 74.796 92.0149 75.164C91.3269 75.532 90.5749 75.7 89.7589 75.668C88.9429 75.62 88.1349 75.332 87.3349 74.804V74.588C87.3349 74.588 87.4149 74.588 87.5749 74.588C87.7509 74.588 87.9669 74.564 88.2229 74.516C88.4789 74.452 88.7429 74.34 89.0149 74.18C89.3029 74.02 89.5749 73.78 89.8309 73.46C90.0869 73.14 90.2869 72.708 90.4309 72.164C90.4789 71.972 90.5109 71.764 90.5269 71.54C90.5589 71.3 90.5669 71.092 90.5509 70.916C90.5349 70.036 90.2709 69.34 89.7589 68.828C89.2629 68.3 88.5669 68.036 87.6709 68.036H86.5429C86.5429 68.036 86.5269 67.964 86.4949 67.82C86.4629 67.66 86.4229 67.5 86.3749 67.34C86.3429 67.18 86.3269 67.1 86.3269 67.1ZM86.5909 67.1V81.5H83.1349V67.1H86.5909ZM83.1829 79.988L83.2789 81.5H81.5509V81.26C81.5669 81.26 81.6149 81.26 81.6949 81.26C81.7749 81.26 81.8229 81.26 81.8389 81.26C82.1909 81.26 82.4869 81.14 82.7269 80.9C82.9829 80.644 83.1189 80.34 83.1349 79.988H83.1829ZM83.1829 68.588H83.1349C83.1189 68.22 82.9829 67.924 82.7269 67.7C82.4869 67.46 82.1909 67.34 81.8389 67.34C81.8069 67.34 81.7509 67.34 81.6709 67.34C81.6069 67.34 81.5589 67.34 81.5269 67.34V67.1H83.2789L83.1829 68.588ZM86.5429 79.988H86.5909C86.6069 80.34 86.7349 80.644 86.9749 80.9C87.2149 81.14 87.5189 81.26 87.8869 81.26C87.9189 81.26 87.9669 81.26 88.0309 81.26C88.1109 81.26 88.1589 81.26 88.1749 81.26V81.5H86.4229L86.5429 79.988ZM100.557 67.1H103.149C103.805 67.1 104.445 67.172 105.069 67.316C105.693 67.444 106.253 67.66 106.749 67.964C107.245 68.252 107.637 68.652 107.925 69.164C108.229 69.66 108.381 70.284 108.381 71.036C108.381 71.596 108.261 72.156 108.021 72.716C107.797 73.26 107.437 73.732 106.941 74.132C106.461 74.532 105.829 74.796 105.045 74.924C105.509 75.068 105.949 75.348 106.365 75.764C106.797 76.18 107.133 76.572 107.373 76.94C107.437 77.068 107.549 77.276 107.709 77.564C107.869 77.836 108.069 78.156 108.309 78.524C108.565 78.876 108.829 79.244 109.101 79.628C109.421 80.06 109.701 80.396 109.941 80.636C110.181 80.86 110.429 81.02 110.685 81.116C110.941 81.212 111.237 81.26 111.573 81.26V81.5H109.557C108.693 81.5 107.957 81.436 107.349 81.308C106.757 81.18 106.237 80.948 105.789 80.612C105.357 80.26 104.957 79.788 104.589 79.196C104.445 78.988 104.293 78.74 104.133 78.452C103.973 78.148 103.813 77.844 103.653 77.54C103.493 77.236 103.349 76.94 103.221 76.652C103.109 76.364 103.029 76.124 102.981 75.932C102.773 75.42 102.533 75.052 102.261 74.828C102.005 74.588 101.765 74.468 101.541 74.468V74.252C101.541 74.252 101.597 74.252 101.709 74.252C101.821 74.252 101.965 74.252 102.141 74.252C102.477 74.252 102.805 74.196 103.125 74.084C103.461 73.956 103.765 73.724 104.037 73.388C104.309 73.036 104.509 72.524 104.637 71.852C104.669 71.756 104.693 71.62 104.709 71.444C104.741 71.268 104.749 71.068 104.733 70.844C104.701 70.252 104.589 69.78 104.397 69.428C104.221 69.06 103.997 68.788 103.725 68.612C103.453 68.42 103.173 68.292 102.885 68.228C102.613 68.148 102.373 68.108 102.165 68.108C101.861 68.092 101.581 68.092 101.325 68.108C101.085 68.108 100.901 68.1 100.773 68.084C100.757 68.084 100.733 68.004 100.701 67.844C100.669 67.668 100.637 67.5 100.605 67.34C100.573 67.18 100.557 67.1 100.557 67.1ZM100.797 67.1V81.5H97.3174V67.1H100.797ZM97.3894 79.988L97.4854 81.5H95.7574V81.26C95.7734 81.26 95.8134 81.26 95.8774 81.26C95.9574 81.26 96.0134 81.26 96.0454 81.26C96.3974 81.26 96.6934 81.14 96.9334 80.9C97.1894 80.644 97.3254 80.34 97.3414 79.988H97.3894ZM97.3894 68.588H97.3414C97.3254 68.22 97.1894 67.924 96.9334 67.7C96.6934 67.46 96.4054 67.34 96.0694 67.34C96.0214 67.34 95.9574 67.34 95.8774 67.34C95.8134 67.34 95.7734 67.34 95.7574 67.34V67.1H97.4854L97.3894 68.588ZM100.749 79.988H100.797C100.797 80.388 100.933 80.7 101.205 80.924C101.493 81.148 101.797 81.26 102.117 81.26C102.117 81.26 102.149 81.26 102.213 81.26C102.277 81.26 102.325 81.26 102.357 81.26V81.5H100.629L100.749 79.988ZM116.45 67.1V81.5H112.994V67.1H116.45ZM122.066 80.54L122.618 81.5H116.402V80.54H122.066ZM121.25 73.892V74.852H116.402V73.892H121.25ZM122.33 67.1V68.06H116.402V67.1H122.33ZM123.602 77.084L122.69 81.5H118.538L119.282 80.54C119.97 80.54 120.578 80.404 121.106 80.132C121.65 79.844 122.114 79.444 122.498 78.932C122.882 78.404 123.178 77.788 123.386 77.084H123.602ZM121.25 74.804V76.916H121.01V76.724C121.01 76.196 120.842 75.756 120.506 75.404C120.186 75.052 119.746 74.868 119.186 74.852V74.804H121.25ZM121.25 71.828V73.94H119.186V73.892C119.746 73.876 120.186 73.692 120.506 73.34C120.842 72.972 121.01 72.524 121.01 71.996V71.828H121.25ZM122.33 68.012V70.556H122.09V70.34C122.09 69.636 121.898 69.084 121.514 68.684C121.146 68.284 120.61 68.076 119.906 68.06V68.012H122.33ZM122.33 66.74V67.316L119.81 67.1C120.274 67.1 120.762 67.06 121.274 66.98C121.786 66.884 122.138 66.804 122.33 66.74ZM113.042 79.988L113.162 81.5H111.386V81.26C111.386 81.26 111.434 81.26 111.53 81.26C111.626 81.26 111.682 81.26 111.698 81.26C112.05 81.26 112.346 81.14 112.586 80.9C112.842 80.644 112.978 80.34 112.994 79.988H113.042ZM113.042 68.612H112.994C112.978 68.244 112.842 67.94 112.586 67.7C112.346 67.46 112.05 67.34 111.698 67.34C111.682 67.34 111.626 67.34 111.53 67.34C111.434 67.34 111.386 67.34 111.386 67.34V67.1H113.162L113.042 68.612ZM126.301 66.764L140.389 79.148L140.629 81.812L126.565 69.428L126.301 66.764ZM126.397 80.036V81.5H124.621V81.26C124.621 81.26 124.685 81.26 124.813 81.26C124.941 81.26 125.005 81.26 125.005 81.26C125.373 81.26 125.685 81.148 125.941 80.924C126.197 80.684 126.325 80.388 126.325 80.036H126.397ZM129.613 80.036C129.629 80.388 129.765 80.684 130.021 80.924C130.277 81.148 130.581 81.26 130.933 81.26C130.933 81.26 130.997 81.26 131.125 81.26C131.269 81.26 131.341 81.26 131.341 81.26V81.5H129.565V80.036H129.613ZM126.301 66.764L129.613 70.364V81.5H126.325V69.5C126.325 68.684 126.285 68.028 126.205 67.532C126.125 67.02 126.085 66.764 126.085 66.764H126.301ZM140.605 67.1V79.004C140.605 79.564 140.621 80.06 140.653 80.492C140.701 80.908 140.741 81.236 140.773 81.476C140.821 81.7 140.845 81.812 140.845 81.812H140.629L137.317 77.996V67.1H140.605ZM140.533 68.564V67.1H142.333V67.34C142.333 67.34 142.261 67.34 142.117 67.34C141.989 67.34 141.925 67.34 141.925 67.34C141.573 67.34 141.261 67.46 140.989 67.7C140.733 67.924 140.605 68.212 140.605 68.564H140.533ZM137.317 68.564C137.301 68.212 137.165 67.924 136.909 67.7C136.669 67.46 136.365 67.34 135.997 67.34C135.997 67.34 135.925 67.34 135.781 67.34C135.653 67.34 135.589 67.34 135.589 67.34V67.1H137.365V68.564H137.317ZM151.748 67.172V81.5H148.268V67.172H151.748ZM156.98 67.076V68.036H143.06V67.076H156.98ZM156.98 67.964V70.508H156.716V70.292C156.732 69.604 156.54 69.06 156.14 68.66C155.756 68.26 155.22 68.052 154.532 68.036V67.964H156.98ZM156.98 66.716V67.316L154.436 67.076C154.74 67.076 155.068 67.06 155.42 67.028C155.772 66.98 156.092 66.932 156.38 66.884C156.668 66.82 156.868 66.764 156.98 66.716ZM148.316 79.988V81.5H146.708V81.26C146.708 81.26 146.748 81.26 146.828 81.26C146.924 81.26 146.972 81.26 146.972 81.26C147.324 81.26 147.62 81.14 147.86 80.9C148.116 80.644 148.252 80.34 148.268 79.988H148.316ZM151.676 79.988H151.748C151.748 80.34 151.876 80.644 152.132 80.9C152.388 81.14 152.7 81.26 153.068 81.26C153.068 81.26 153.108 81.26 153.188 81.26C153.284 81.26 153.332 81.26 153.332 81.26V81.5H151.676V79.988ZM145.508 67.964V68.036C144.804 68.052 144.26 68.26 143.876 68.66C143.508 69.06 143.324 69.604 143.324 70.292V70.508H143.06V67.964H145.508ZM143.06 66.716C143.204 66.748 143.412 66.796 143.684 66.86C143.972 66.924 144.284 66.98 144.62 67.028C144.972 67.06 145.292 67.076 145.58 67.076L143.06 67.316V66.716ZM163.35 67.1V81.5H159.894V67.1H163.35ZM159.966 79.988V81.5H158.214V81.26C158.214 81.26 158.262 81.26 158.358 81.26C158.454 81.26 158.51 81.26 158.526 81.26C158.894 81.26 159.214 81.14 159.486 80.9C159.758 80.644 159.894 80.34 159.894 79.988H159.966ZM163.302 79.988H163.35C163.366 80.34 163.502 80.644 163.758 80.9C164.03 81.14 164.358 81.26 164.742 81.26C164.742 81.26 164.782 81.26 164.862 81.26C164.958 81.26 165.014 81.26 165.03 81.26V81.5H163.302V79.988ZM163.302 68.612V67.1H165.03L165.006 67.34C165.006 67.34 164.966 67.34 164.886 67.34C164.806 67.34 164.758 67.34 164.742 67.34C164.358 67.34 164.03 67.46 163.758 67.7C163.502 67.94 163.366 68.244 163.35 68.612H163.302ZM159.966 68.612H159.894C159.894 68.244 159.758 67.94 159.486 67.7C159.214 67.46 158.886 67.34 158.502 67.34C158.502 67.34 158.454 67.34 158.358 67.34C158.262 67.34 158.214 67.34 158.214 67.34V67.1H159.966V68.612ZM180.841 75.476L181.105 79.1C180.801 79.612 180.377 80.076 179.833 80.492C179.289 80.892 178.625 81.212 177.841 81.452C177.057 81.692 176.145 81.812 175.105 81.812C173.313 81.796 171.769 81.492 170.473 80.9C169.177 80.308 168.177 79.46 167.473 78.356C166.785 77.236 166.441 75.876 166.441 74.276C166.441 72.708 166.785 71.372 167.473 70.268C168.161 69.148 169.153 68.292 170.449 67.7C171.745 67.092 173.297 66.788 175.105 66.788C176.193 66.788 177.201 66.892 178.129 67.1C179.073 67.308 179.857 67.572 180.481 67.892L180.505 71.708H180.313C179.913 70.236 179.281 69.204 178.417 68.612C177.553 68.02 176.529 67.724 175.345 67.724C174.177 67.724 173.201 67.996 172.417 68.54C171.649 69.084 171.065 69.844 170.665 70.82C170.281 71.796 170.089 72.94 170.089 74.252C170.089 75.58 170.281 76.732 170.665 77.708C171.065 78.684 171.641 79.444 172.393 79.988C173.145 80.532 174.049 80.82 175.105 80.852C176.241 80.852 177.177 80.676 177.913 80.324C178.665 79.972 179.257 79.404 179.689 78.62C180.137 77.836 180.457 76.788 180.649 75.476H180.841ZM187.888 67.1V81.5H184.432V67.1H187.888ZM193.504 80.54L194.056 81.5H187.84V80.54H193.504ZM192.688 73.892V74.852H187.84V73.892H192.688ZM193.768 67.1V68.06H187.84V67.1H193.768ZM195.04 77.084L194.128 81.5H189.976L190.72 80.54C191.408 80.54 192.016 80.404 192.544 80.132C193.088 79.844 193.552 79.444 193.936 78.932C194.32 78.404 194.616 77.788 194.824 77.084H195.04ZM192.688 74.804V76.916H192.448V76.724C192.448 76.196 192.28 75.756 191.944 75.404C191.624 75.052 191.184 74.868 190.624 74.852V74.804H192.688ZM192.688 71.828V73.94H190.624V73.892C191.184 73.876 191.624 73.692 191.944 73.34C192.28 72.972 192.448 72.524 192.448 71.996V71.828H192.688ZM193.768 68.012V70.556H193.528V70.34C193.528 69.636 193.336 69.084 192.952 68.684C192.584 68.284 192.048 68.076 191.344 68.06V68.012H193.768ZM193.768 66.74V67.316L191.248 67.1C191.712 67.1 192.2 67.06 192.712 66.98C193.224 66.884 193.576 66.804 193.768 66.74ZM184.48 79.988L184.6 81.5H182.824V81.26C182.824 81.26 182.872 81.26 182.968 81.26C183.064 81.26 183.12 81.26 183.136 81.26C183.488 81.26 183.784 81.14 184.024 80.9C184.28 80.644 184.416 80.34 184.432 79.988H184.48ZM184.48 68.612H184.432C184.416 68.244 184.28 67.94 184.024 67.7C183.784 67.46 183.488 67.34 183.136 67.34C183.12 67.34 183.064 67.34 182.968 67.34C182.872 67.34 182.824 67.34 182.824 67.34V67.1H184.6L184.48 68.612Z" fill="#665931"/>
<path d="M187.253 469C247.04 503.518 267.524 579.967 233.006 639.753C198.489 699.54 122.04 720.024 62.2532 685.506C2.4666 650.989 -18.0178 574.54 16.5 514.753C51.0178 454.967 127.467 434.482 187.253 469ZM186.253 470.732C127.423 436.767 52.1976 456.923 18.2321 515.753C-15.7335 574.583 4.42318 649.809 63.2532 683.774C122.083 717.74 197.309 697.583 231.274 638.753C265.24 579.923 245.083 504.698 186.253 470.732ZM71.6562 679.261C70.1789 678.49 68.71 677.687 67.2532 676.846C65.796 676.005 64.3657 675.134 62.9596 674.24L63.4949 673.399C64.8888 674.285 66.3085 675.146 67.7532 675.98C69.1978 676.814 70.6531 677.613 72.1179 678.377L71.6562 679.261ZM47.7147 661.317C50.1449 663.539 52.6873 665.67 55.3394 667.7L55.0352 668.096L54.8956 668.279L54.7318 668.493C52.0565 666.445 49.4921 664.295 47.0405 662.053L47.7147 661.317ZM90.1701 686.954C87.0023 685.952 83.8585 684.806 80.7473 683.513L80.9385 683.053L80.939 683.052L81.1308 682.591C84.2149 683.872 87.3313 685.009 90.4713 686.002L90.1701 686.954ZM34.287 646.67C36.2966 649.291 38.4283 651.835 40.6798 654.29L39.9437 654.964C37.6724 652.486 35.5218 649.921 33.4946 647.277L34.287 646.67ZM109.739 691.297C106.436 690.863 103.139 690.283 99.8577 689.555L100.074 688.581C103.326 689.303 106.595 689.878 109.87 690.307L109.739 691.297ZM23.6214 629.901C25.1467 632.838 26.8033 635.714 28.5871 638.519L28.165 638.787L27.7452 639.053C25.9456 636.223 24.2738 633.323 22.735 630.36L23.6214 629.901ZM129.77 692.156C126.434 692.305 123.087 692.308 119.736 692.164L119.757 691.668L119.779 691.168C123.1 691.31 126.419 691.307 129.725 691.16L129.77 692.156ZM174.753 490.651C187.533 498.029 198.066 507.804 206.117 519.079C209.099 517.389 212.872 517.277 216.054 519.115C220.837 521.876 222.476 527.992 219.715 532.775C218.803 534.354 217.524 535.587 216.05 536.436C227.382 561.84 228.004 591.634 215.919 618.355C220.369 621.226 221.827 627.116 219.15 631.753C216.473 636.39 210.642 638.072 205.931 635.653C188.833 659.48 162.719 673.837 135.053 676.725C135.055 678.426 134.627 680.152 133.715 681.731C130.953 686.514 124.837 688.153 120.054 685.392C116.871 683.554 115.083 680.23 115.056 676.802C101.266 675.467 87.5335 671.234 74.7532 663.856C61.9727 656.477 51.4397 646.701 43.3889 635.426C40.4068 637.116 36.6349 637.229 33.4519 635.392C28.669 632.63 27.0302 626.514 29.7917 621.731C30.7036 620.152 31.9822 618.917 33.457 618.068C22.1251 592.665 21.5014 562.87 33.5866 536.15C29.1377 533.279 27.6795 527.39 30.3564 522.753C33.0333 518.117 38.863 516.434 43.5744 518.851C60.6718 495.025 86.7862 480.667 114.452 477.779C114.45 476.078 114.88 474.354 115.792 472.775C118.553 467.992 124.669 466.353 129.452 469.115C132.634 470.952 134.423 474.275 134.451 477.701C148.241 479.036 161.973 483.272 174.753 490.651ZM46.7811 632.262C46.2767 633.023 45.6828 633.693 45.022 634.27C52.9112 645.316 63.231 654.894 75.7532 662.124C88.2751 669.353 101.73 673.501 115.24 674.81C115.409 673.95 115.693 673.101 116.1 672.283L46.7811 632.262ZM42.4519 619.803C41.6869 619.361 40.8788 619.062 40.0586 618.894C39.642 618.808 39.2223 618.757 38.803 618.738C37.7686 618.694 36.739 618.853 35.7716 619.196C35.7012 619.221 35.631 619.246 35.5613 619.273C33.9184 619.909 32.4731 621.087 31.5237 622.731C29.3146 626.558 30.6256 631.45 34.4519 633.66C36.9394 635.096 39.8762 635.042 42.2348 633.779L42.4525 633.658C42.8039 633.455 43.1412 633.225 43.4612 632.969C44.0583 632.49 44.5935 631.918 45.0448 631.259C45.0964 631.184 45.1466 631.107 45.1964 631.03C45.2588 630.932 45.3214 630.833 45.3801 630.731C45.4996 630.524 45.6068 630.313 45.7058 630.101C45.7634 629.977 45.8181 629.852 45.8687 629.727C45.9071 629.632 45.9428 629.537 45.9773 629.441C46.0645 629.199 46.1404 628.954 46.2033 628.708C46.7781 626.459 46.3369 624.08 45.0444 622.198L45.0449 622.197C44.3908 621.244 43.5192 620.419 42.4519 619.803ZM129.054 669.803C125.228 667.594 120.335 668.905 118.126 672.731C117.589 673.662 117.261 674.656 117.126 675.66C117.118 675.72 117.111 675.781 117.104 675.842C117.084 676.019 117.071 676.195 117.063 676.372C117.059 676.451 117.057 676.53 117.056 676.608C117.015 679.414 118.452 682.157 121.054 683.66C124.881 685.869 129.774 684.558 131.983 680.731C132.79 679.333 133.125 677.792 133.041 676.291C133.029 676.088 133.011 675.884 132.984 675.683C132.977 675.634 132.97 675.585 132.963 675.536C132.946 675.426 132.926 675.316 132.905 675.206C132.902 675.189 132.899 675.172 132.896 675.156C132.88 675.079 132.864 675.002 132.846 674.925L132.845 674.925C132.697 674.285 132.47 673.664 132.169 673.076L132.028 672.813C131.698 672.224 131.29 671.673 130.811 671.177C130.304 670.652 129.718 670.186 129.054 669.803ZM16.0286 611.534C17.0245 614.696 18.1585 617.816 19.4266 620.883L18.5028 621.265C17.2236 618.17 16.0812 615.023 15.0765 611.834L15.5519 611.684L16.0286 611.534ZM149.536 689.04L149.643 689.526C146.379 690.25 143.082 690.835 139.762 691.274L139.632 690.284C142.922 689.848 146.191 689.27 149.427 688.552L149.536 689.04ZM76.0076 606.65C79.3458 612.693 81.1442 619.467 81.2405 626.371L81.2434 627.065C81.2254 634.01 79.4852 640.835 76.1891 646.931L89.3883 654.552C93.0315 648.693 98.0664 643.815 104.053 640.359L104.654 640.019C110.463 636.791 116.952 634.99 123.586 634.757L123.586 592.21C121.421 592.042 119.259 591.402 117.253 590.244C115.229 589.075 113.58 587.505 112.349 585.693L76.0076 606.65ZM69.9863 610.122C72.8472 615.396 74.3623 621.318 74.3834 627.346L74.3799 627.936C74.313 633.206 73.1044 638.389 70.8516 643.121L74.7411 645.396C77.6793 639.74 79.2272 633.453 79.2439 627.06C79.2614 620.269 77.549 613.589 74.275 607.649L69.9863 610.122ZM123.586 636.758C117.073 636.997 110.71 638.825 105.053 642.091C99.5519 645.268 94.8946 649.705 91.4574 655.025L94.9562 657.045C97.9609 652.606 101.953 648.902 106.643 646.225L107.153 645.939C112.18 643.179 117.818 641.673 123.586 641.548L123.586 636.758ZM123.586 642.547C117.795 642.677 112.141 644.237 107.139 647.093C102.602 649.682 98.7388 653.26 95.8247 657.546L117.568 670.099C119.154 668.305 121.303 667.182 123.586 666.842L123.586 642.547ZM47.7131 622.966C48.5748 625.089 48.7028 627.489 47.985 629.749L69.9843 642.614C72.2329 637.861 73.401 632.643 73.3826 627.349C73.3622 621.495 71.8936 615.744 69.1202 610.622L47.7131 622.966ZM38.3835 537.733C37.3673 537.669 36.3506 537.45 35.3685 537.064C23.5684 563.225 24.1916 592.382 35.2825 617.248C36.2796 616.915 37.3267 616.74 38.384 616.732L38.3835 537.733ZM133.902 672.074C134.343 672.914 134.662 673.809 134.851 674.734C161.931 671.906 187.493 657.867 204.248 634.567C203.511 633.98 202.876 633.3 202.347 632.557L133.902 672.074ZM11.7225 592.132C12.1581 595.422 12.736 598.691 13.4543 601.927L12.9661 602.034L12.4797 602.142C11.7551 598.878 11.171 595.581 10.7316 592.262L11.7225 592.132ZM168.765 683.503C165.671 684.782 162.524 685.924 159.334 686.929L159.184 686.454L159.185 686.454L159.034 685.978C162.196 684.982 165.316 683.848 168.383 682.58L168.765 683.503ZM141.947 647.224C136.941 644.358 131.319 642.757 125.585 642.559L125.585 666.746C127.111 666.826 128.641 667.255 130.054 668.071C131.012 668.624 131.841 669.313 132.537 670.097L153.573 657.951C150.568 653.56 146.595 649.887 141.947 647.224ZM56.0926 597.138C51.4808 594.445 46.3262 592.877 41.0357 592.541L41.1842 617.11C41.9599 617.331 42.7216 617.649 43.4519 618.071C44.8348 618.87 45.953 619.95 46.7798 621.196L68.1194 608.891C65.1222 604.037 60.9937 599.999 56.0926 597.138ZM10.8381 572.279C10.6959 575.6 10.6992 578.919 10.8466 582.225L9.84907 582.269C9.70033 578.934 9.69792 575.586 9.84142 572.235L10.3384 572.257L10.8381 572.279ZM186.554 674.26C183.724 676.06 180.823 677.732 177.861 679.27L177.401 678.385C180.338 676.86 183.214 675.203 186.019 673.419L186.554 674.26ZM145.05 642.088C139.124 638.667 132.421 636.825 125.585 636.735L125.585 641.559C131.495 641.757 137.288 643.404 142.444 646.357L142.954 646.654C147.536 649.378 151.458 653.067 154.443 657.449L158.649 655.02C155.211 649.7 150.553 645.264 145.05 642.088ZM59.133 592.252C53.5868 589.074 47.3685 587.275 41.0015 586.995L41.0289 591.539C46.4996 591.875 51.8303 593.491 56.5968 596.274L57.0987 596.573C61.9308 599.502 66.0038 603.555 68.985 608.391L73.2655 605.923C69.7686 600.267 64.9133 595.565 59.133 592.252ZM137.214 585.602C134.52 589.632 130.154 591.972 125.585 592.23L125.585 634.736L125.742 634.737C132.875 634.854 139.865 636.786 146.05 640.356L146.645 640.706C152.306 644.099 157.083 648.777 160.595 654.354L173.502 646.902C170.461 641.154 168.793 634.773 168.639 628.261L168.627 627.568C168.575 620.392 170.363 613.327 173.813 607.044L173.945 606.809L137.214 585.602ZM75.0704 550.035C71.3548 556.164 66.1285 561.245 59.8886 564.788L59.2834 565.125C53.4714 568.299 46.9944 570.049 40.3839 570.243L40.3844 584.972C47.3154 585.16 54.1003 587.062 60.1284 590.517L60.7286 590.868C66.5517 594.334 71.4468 599.158 74.9995 604.923L111.339 583.967C109.304 579.892 109.159 574.965 111.292 570.636L75.2077 549.803L75.0704 550.035ZM13.4249 552.574C12.7029 555.826 12.1287 559.095 11.6989 562.37L10.7088 562.239C11.1423 558.935 11.722 555.638 12.4504 552.357L12.937 552.466L13.4249 552.574ZM202.128 661.695L202.464 662.062C199.987 664.333 197.421 666.484 194.777 668.511L194.17 667.719C196.791 665.71 199.335 663.578 201.79 661.327L202.128 661.695ZM69.143 546.301C66.1064 551.394 61.8534 555.681 56.7592 558.77L56.2574 559.069C51.529 561.834 46.2442 563.497 40.8079 563.936L40.7667 568.23C47.1284 567.973 53.3478 566.201 58.9014 563.048C64.91 559.637 69.9292 554.727 73.4748 548.802L69.143 546.301ZM175.678 607.809C172.319 613.842 170.577 620.644 170.627 627.553C170.673 633.939 172.249 640.212 175.208 645.849L179.209 643.487C176.654 638.603 175.281 633.172 175.212 627.623L175.21 627.038C175.234 621.127 176.741 615.295 179.592 610.069L175.678 607.809ZM47.1338 533.594C45.6355 535.682 43.4446 537.04 41.064 537.539L40.818 562.93C46.2603 562.477 51.5452 560.763 56.2413 557.915C61.1921 554.913 65.3248 550.748 68.277 545.801L47.1338 533.594ZM180.459 610.569C177.603 615.812 176.139 621.68 176.212 627.61C176.278 632.985 177.605 638.245 180.072 642.978L201.218 630.494C200.226 628.03 200.218 625.197 201.373 622.644L180.459 610.569ZM19.4157 533.631C18.1339 536.715 16.9974 539.831 16.0042 542.971L15.5268 542.82L15.5271 542.821L15.0519 542.67C16.0538 539.502 17.1998 536.358 18.4928 533.247L18.9538 533.439L19.4157 533.631ZM215.993 647.274C213.945 649.949 211.796 652.513 209.553 654.965L209.185 654.63L209.186 654.629L208.817 654.292C211.039 651.861 213.17 649.319 215.2 646.667L215.993 647.274ZM131.253 565.995C131.039 565.871 130.824 565.755 130.606 565.645C130.57 565.627 130.534 565.609 130.497 565.591C130.454 565.57 130.411 565.549 130.368 565.528L130.23 565.463C130.207 565.452 130.185 565.442 130.162 565.431C130.102 565.404 130.042 565.377 129.982 565.35C129.927 565.326 129.87 565.302 129.814 565.278C129.746 565.249 129.677 565.22 129.608 565.193C129.577 565.18 129.546 565.167 129.515 565.155C129.174 565.02 128.829 564.901 128.482 564.796C128.471 564.793 128.459 564.79 128.448 564.787C128.343 564.756 128.238 564.726 128.133 564.698C128.117 564.693 128.1 564.688 128.084 564.684C127.98 564.656 127.876 564.63 127.772 564.605C127.763 564.603 127.754 564.601 127.746 564.599C127.533 564.549 127.319 564.503 127.106 564.464C127.072 564.458 127.039 564.452 127.006 564.446C126.67 564.387 126.332 564.341 125.994 564.309C125.947 564.305 125.9 564.302 125.853 564.298C125.782 564.292 125.711 564.286 125.64 564.281C125.622 564.28 125.603 564.278 125.585 564.277C124.916 564.235 124.248 564.244 123.586 564.304C123.069 564.351 122.556 564.43 122.05 564.538C122.015 564.545 121.981 564.553 121.946 564.56C121.564 564.645 121.184 564.746 120.811 564.864C120.788 564.872 120.766 564.88 120.744 564.888C120.372 565.008 120.006 565.144 119.647 565.297C119.628 565.305 119.609 565.314 119.59 565.322C119.524 565.35 119.458 565.379 119.393 565.408C119.352 565.427 119.311 565.446 119.27 565.465C119.221 565.487 119.172 565.51 119.124 565.533C119.068 565.56 119.012 565.588 118.957 565.615C118.907 565.64 118.857 565.665 118.807 565.69C118.753 565.718 118.699 565.747 118.645 565.776C118.61 565.794 118.576 565.813 118.541 565.832C118.482 565.864 118.423 565.897 118.365 565.93C118.184 566.031 118.005 566.137 117.829 566.247C117.773 566.283 117.717 566.318 117.662 566.354C117.514 566.45 117.368 566.55 117.224 566.652C117.185 566.68 117.145 566.707 117.107 566.736C117.071 566.762 117.036 566.788 117 566.814C116.942 566.857 116.884 566.901 116.827 566.945C116.791 566.973 116.755 567 116.719 567.027C116.662 567.073 116.605 567.119 116.548 567.165C116.516 567.192 116.483 567.218 116.451 567.245C116.394 567.291 116.338 567.34 116.283 567.388C116.262 567.405 116.242 567.423 116.222 567.44C115.955 567.673 115.696 567.916 115.446 568.172C115.41 568.209 115.374 568.247 115.338 568.285C115.299 568.326 115.26 568.368 115.221 568.411C115.188 568.446 115.156 568.481 115.124 568.516C114.988 568.665 114.856 568.819 114.727 568.976C114.71 568.997 114.692 569.018 114.675 569.039C114.633 569.091 114.592 569.143 114.551 569.195C114.512 569.245 114.471 569.295 114.432 569.346C114.402 569.386 114.372 569.427 114.342 569.467C114.302 569.521 114.261 569.575 114.221 569.63C113.963 569.988 113.72 570.363 113.495 570.753C113.383 570.947 113.276 571.143 113.175 571.341L113.028 571.638C112.962 571.774 112.901 571.911 112.84 572.049C112.803 572.134 112.766 572.219 112.731 572.305C112.726 572.316 112.722 572.327 112.717 572.338C112.677 572.436 112.638 572.534 112.601 572.632C112.585 572.672 112.57 572.713 112.555 572.754C112.486 572.94 112.422 573.127 112.362 573.315C112.349 573.357 112.335 573.399 112.322 573.441C112.257 573.654 112.197 573.867 112.143 574.082C112.135 574.112 112.128 574.142 112.121 574.172C112.045 574.483 111.981 574.796 111.928 575.109C111.92 575.158 111.912 575.207 111.905 575.256C111.876 575.441 111.851 575.628 111.83 575.814C111.811 575.992 111.795 576.171 111.782 576.35C111.769 576.549 111.76 576.747 111.755 576.946C111.754 577.011 111.753 577.077 111.752 577.142C111.752 577.19 111.751 577.238 111.752 577.286C111.752 577.339 111.752 577.393 111.753 577.446C111.754 577.527 111.757 577.608 111.759 577.689C111.76 577.717 111.761 577.745 111.762 577.774C111.776 578.12 111.805 578.465 111.846 578.808C111.868 578.99 111.895 579.172 111.925 579.354C111.929 579.382 111.934 579.409 111.938 579.437C111.968 579.609 112.001 579.78 112.037 579.95C112.047 579.998 112.058 580.045 112.068 580.093C112.148 580.447 112.242 580.798 112.35 581.144C112.361 581.178 112.371 581.213 112.382 581.247C112.436 581.415 112.494 581.582 112.555 581.748C112.568 581.781 112.58 581.814 112.593 581.847C112.659 582.023 112.729 582.199 112.803 582.372C112.822 582.416 112.842 582.46 112.861 582.504C112.883 582.555 112.905 582.606 112.928 582.656C113.72 584.393 114.9 585.968 116.427 587.239C116.454 587.261 116.482 587.284 116.509 587.306C116.572 587.358 116.636 587.409 116.701 587.46C116.732 587.484 116.764 587.509 116.795 587.533C116.848 587.574 116.901 587.615 116.955 587.655C116.998 587.687 117.042 587.719 117.086 587.751C117.134 587.786 117.183 587.821 117.232 587.855C117.276 587.887 117.321 587.919 117.366 587.95C117.433 587.996 117.501 588.041 117.569 588.086C117.593 588.102 117.616 588.118 117.64 588.134C117.72 588.186 117.801 588.238 117.883 588.289C117.904 588.302 117.924 588.315 117.945 588.328C118.047 588.39 118.149 588.452 118.253 588.512C118.357 588.572 118.462 588.63 118.567 588.687C118.577 588.692 118.587 588.697 118.597 588.702C118.789 588.806 118.983 588.903 119.179 588.996C119.231 589.021 119.284 589.046 119.337 589.07C119.383 589.092 119.43 589.114 119.477 589.134C119.529 589.158 119.582 589.18 119.634 589.203C119.708 589.234 119.781 589.265 119.854 589.295C119.866 589.3 119.878 589.305 119.89 589.31C119.977 589.345 120.064 589.379 120.152 589.413C120.187 589.426 120.222 589.439 120.257 589.452C122.27 590.196 124.385 590.408 126.427 590.142C126.534 590.128 126.641 590.113 126.748 590.096C126.831 590.084 126.913 590.071 126.996 590.057C127.13 590.033 127.263 590.007 127.397 589.979C127.488 589.96 127.578 589.939 127.669 589.918C127.77 589.895 127.872 589.871 127.974 589.845C128.068 589.821 128.162 589.795 128.255 589.769C128.361 589.74 128.466 589.709 128.57 589.677C128.656 589.651 128.741 589.625 128.826 589.597C128.954 589.555 129.082 589.511 129.208 589.464C129.272 589.441 129.335 589.417 129.399 589.393C129.547 589.336 129.695 589.278 129.841 589.215C130.269 589.034 130.687 588.83 131.094 588.603C131.117 588.59 131.14 588.577 131.162 588.564C131.234 588.523 131.305 588.481 131.376 588.439C131.41 588.42 131.443 588.4 131.476 588.38C132.284 587.893 133.044 587.317 133.738 586.652C133.755 586.636 133.772 586.62 133.788 586.604C134.045 586.356 134.292 586.095 134.53 585.824C134.55 585.801 134.57 585.777 134.59 585.754C134.641 585.695 134.691 585.635 134.741 585.575C134.771 585.539 134.801 585.502 134.831 585.466C134.878 585.407 134.926 585.349 134.972 585.29C135.002 585.252 135.031 585.214 135.061 585.175C135.404 584.728 135.722 584.254 136.012 583.753C136.368 583.135 136.667 582.499 136.913 581.852C136.917 581.841 136.921 581.83 136.925 581.819C137.002 581.616 137.073 581.412 137.139 581.207C137.15 581.171 137.162 581.135 137.173 581.098C137.346 580.543 137.479 579.982 137.574 579.418C137.579 579.387 137.584 579.357 137.589 579.327C137.624 579.114 137.653 578.901 137.676 578.688C137.679 578.663 137.682 578.639 137.684 578.614C137.691 578.545 137.697 578.476 137.703 578.407C137.708 578.351 137.714 578.295 137.718 578.239C137.722 578.188 137.725 578.137 137.728 578.087C137.734 577.992 137.739 577.897 137.743 577.802C137.75 577.622 137.755 577.443 137.755 577.263C137.755 577.233 137.754 577.203 137.754 577.173C137.751 576.849 137.738 576.524 137.711 576.202C137.709 576.17 137.706 576.138 137.703 576.107C137.696 576.034 137.689 575.961 137.681 575.889C137.678 575.857 137.675 575.826 137.671 575.794C137.666 575.747 137.659 575.699 137.653 575.652C137.632 575.484 137.608 575.317 137.581 575.15C137.574 575.109 137.567 575.068 137.56 575.027C137.534 574.883 137.507 574.739 137.477 574.596C137.466 574.543 137.456 574.491 137.444 574.438C137.409 574.279 137.37 574.122 137.328 573.964C137.316 573.917 137.304 573.87 137.291 573.824C137.247 573.662 137.2 573.501 137.15 573.342C137.137 573.299 137.123 573.257 137.109 573.215C137.054 573.047 136.997 572.88 136.935 572.714C136.929 572.696 136.922 572.68 136.915 572.663C136.851 572.491 136.783 572.322 136.711 572.153C136.703 572.136 136.697 572.118 136.69 572.1C136.67 572.055 136.649 572.011 136.629 571.966C136.327 571.286 135.966 570.629 135.548 570.006L135.549 570.006C135.543 569.998 135.537 569.989 135.532 569.981C135.49 569.919 135.447 569.858 135.405 569.797C135.378 569.759 135.352 569.721 135.326 569.683C135.123 569.401 134.909 569.125 134.683 568.858C134.676 568.85 134.669 568.841 134.662 568.833C134.517 568.662 134.367 568.495 134.212 568.331C134.195 568.313 134.177 568.295 134.16 568.276C134.011 568.12 133.858 567.967 133.7 567.818C133.689 567.807 133.677 567.797 133.666 567.786L133.629 567.751C133.469 567.602 133.305 567.456 133.136 567.314C133.102 567.286 133.068 567.257 133.034 567.229C132.969 567.176 132.903 567.123 132.837 567.07C132.818 567.055 132.799 567.04 132.78 567.025C132.712 566.972 132.642 566.919 132.572 566.867C132.533 566.837 132.494 566.809 132.454 566.78C132.399 566.739 132.344 566.698 132.287 566.659C132.247 566.63 132.207 566.602 132.166 566.574C132.093 566.523 132.019 566.473 131.944 566.423C131.926 566.411 131.908 566.399 131.89 566.387C131.683 566.252 131.471 566.12 131.253 565.995ZM43.0167 520.825C39.1903 518.616 34.2976 519.927 32.0885 523.753C29.9948 527.379 31.0642 531.962 34.4386 534.312C34.53 534.375 34.6234 534.437 34.7179 534.498C34.8161 534.56 34.9149 534.623 35.0167 534.681C36.7425 535.678 38.6846 535.955 40.5003 535.611C40.6964 535.574 40.8915 535.532 41.0843 535.48L41.0838 535.481C43.0628 534.952 44.8397 533.667 45.9449 531.753C48.154 527.927 46.843 523.034 43.0167 520.825ZM214.49 619.825C213.337 619.159 212.087 618.814 210.843 618.76C210.497 618.745 210.152 618.754 209.809 618.784C209.662 618.796 209.515 618.813 209.369 618.834C209.25 618.851 209.132 618.871 209.014 618.893C206.801 619.309 204.776 620.65 203.561 622.753C202.336 624.875 202.196 627.325 202.964 629.463C202.991 629.537 203.019 629.61 203.048 629.684C203.064 629.724 203.08 629.764 203.097 629.804C203.12 629.862 203.145 629.919 203.17 629.976C203.184 630.008 203.198 630.04 203.213 630.072C203.314 630.295 203.426 630.513 203.548 630.727C203.572 630.77 203.597 630.813 203.623 630.856C203.655 630.91 203.688 630.964 203.721 631.017C203.746 631.056 203.771 631.095 203.797 631.133C203.843 631.204 203.89 631.275 203.938 631.345C204.347 631.928 204.837 632.462 205.404 632.928L205.405 632.929C205.481 632.991 205.559 633.051 205.637 633.111C205.906 633.316 206.189 633.508 206.49 633.681C206.591 633.74 206.693 633.793 206.796 633.847C206.896 633.898 206.997 633.949 207.098 633.997L207.097 633.996C210.82 635.745 215.324 634.38 217.418 630.753C219.627 626.927 218.316 622.034 214.49 619.825ZM28.1863 515.727L28.1855 515.726L28.6077 515.995C27.721 517.389 26.8603 518.809 26.0263 520.253C25.1922 521.698 24.3931 523.153 23.6292 524.618L22.7447 524.156C23.5151 522.678 24.3191 521.21 25.1603 519.753C26.0015 518.296 26.8713 516.865 27.7657 515.459L28.1863 515.727ZM226.761 630.349C225.991 631.827 225.187 633.296 224.346 634.753C223.505 636.21 222.635 637.64 221.74 639.046L220.899 638.511C221.785 637.118 222.646 635.698 223.48 634.253C224.314 632.809 225.113 631.353 225.877 629.888L226.32 630.119L226.761 630.349ZM48.653 525.086C49.2594 527.278 49.1237 529.673 48.1338 531.862L69.2541 544.056C71.8553 539.072 73.2134 533.547 73.2063 527.953C73.1997 522.723 71.9994 517.589 69.7093 512.93L48.653 525.086ZM70.5785 512.428C72.9552 517.24 74.2006 522.547 74.2075 527.951L74.203 528.529C74.119 534.103 72.7189 539.592 70.1202 544.556L74.4588 547.061C77.5209 541.31 79.1373 534.891 79.1532 528.36C79.1686 521.974 77.6547 515.686 74.7509 510.02L70.5785 512.428ZM123.586 519.763C116.879 519.625 110.295 517.885 104.388 514.673L103.794 514.343C97.8838 511.005 92.8714 506.283 89.1853 500.583L76.0372 508.175C79.4078 514.363 81.1703 521.306 81.1532 528.364L81.1456 529.059C81.0197 535.7 79.3197 542.212 76.1925 548.062L112.292 568.904C114.921 564.973 119.14 562.649 123.586 562.298L123.586 519.763ZM138.269 570.746C140.207 574.78 140.311 579.614 138.214 583.87L174.96 605.085C178.463 599.452 183.253 594.724 188.941 591.295L189.539 590.941C195.55 587.451 202.326 585.51 209.259 585.284L209.259 570.19C202.671 569.771 196.271 567.806 190.581 564.45L189.998 564.1C184.01 560.435 179.04 555.33 175.537 549.254L138.269 570.746ZM208.626 587.313C202.267 587.631 196.065 589.464 190.542 592.67C184.894 595.95 180.143 600.559 176.694 606.086L180.598 608.341C183.617 603.469 187.762 599.363 192.693 596.378L193.201 596.077C197.925 593.321 203.201 591.667 208.626 591.231L208.626 587.313ZM208.626 592.235C203.189 592.684 197.907 594.392 193.211 597.234C188.423 600.132 184.399 604.115 181.464 608.841L202.373 620.912C203.909 618.771 206.175 617.396 208.626 616.93L208.626 592.235ZM114.655 479.77C87.575 482.597 62.0124 496.638 45.2567 519.937C46.1327 520.635 46.8638 521.462 47.4438 522.372L110.388 486.032L115.657 482.535C115.188 481.666 114.851 480.733 114.655 479.77ZM214.223 537.257C213.376 537.54 212.492 537.709 211.596 537.758L211.26 547.662L211.259 616.78C212.23 616.854 213.199 617.072 214.138 617.441C225.937 591.28 225.315 562.123 214.223 537.257ZM159.918 500.272C156.356 505.888 151.506 510.585 145.761 513.968L145.172 514.308C139.19 517.701 132.463 519.573 125.585 519.758L125.585 562.272C127.861 562.397 130.144 563.045 132.253 564.263C134.348 565.473 136.041 567.112 137.285 569.005L174.578 547.499C171.569 541.652 169.972 535.178 169.922 528.597L169.922 527.917C169.979 521.25 171.623 514.702 174.705 508.81L159.918 500.272ZM40.3211 499.877L40.3202 499.876L40.6897 500.215C38.4669 502.645 36.3364 505.187 34.3063 507.839L33.9094 507.535L33.5129 507.231C35.5607 504.556 37.7103 501.992 39.9528 499.54L40.3211 499.877ZM234.454 611.835C233.452 615.003 232.306 618.147 231.013 621.258L230.553 621.068L230.552 621.066L230.091 620.876C231.372 617.791 232.509 614.675 233.502 611.535L233.979 611.685L234.454 611.835ZM55.3366 486.787C52.7155 488.797 50.1717 490.928 47.7159 493.18L47.0417 492.443C49.5192 490.172 52.0846 488.021 54.7288 485.994L55.3366 486.787ZM238.797 592.266C238.364 595.57 237.784 598.867 237.056 602.148L236.081 601.933C236.803 598.68 237.378 595.411 237.807 592.137L238.797 592.266ZM123.586 513.274C117.841 513.273 112.174 511.9 107.061 509.258L106.552 508.991C101.876 506.479 97.8178 502.966 94.6635 498.71L91.6139 500.613C95.165 505.719 99.8628 509.936 105.343 512.916C110.956 515.968 117.213 517.625 123.586 517.763L123.586 513.274ZM177.269 548.255C180.606 554.041 185.339 558.904 191.042 562.394C196.363 565.65 202.364 567.61 208.561 568.133L208.704 563.934C203.24 563.567 197.921 561.958 193.156 559.215L192.647 558.916C187.558 555.874 183.299 551.621 180.248 546.537L177.269 548.255ZM181.115 546.038C184.178 551.139 188.494 555.377 193.656 558.348C198.278 561.01 203.438 562.572 208.738 562.934L209.259 547.644L209.259 537.613C208.161 537.413 207.077 537.026 206.054 536.435C204.742 535.678 203.669 534.666 202.856 533.5L181.115 546.038ZM123.585 487.737C122.172 487.615 120.762 487.191 119.452 486.435C118.596 485.941 117.843 485.339 117.196 484.657L95.5162 498.178C98.6868 502.436 102.789 505.925 107.52 508.37C112.491 510.938 118.001 512.273 123.586 512.273L123.585 487.737ZM153.714 496.979C150.734 501.535 146.755 505.364 142.069 508.168L141.574 508.459C136.689 511.276 131.212 512.905 125.584 513.218L125.585 517.756C132.332 517.565 138.925 515.672 144.747 512.245C150.122 509.08 154.674 504.706 158.049 499.482L153.714 496.979ZM176.323 510.032C173.487 515.567 171.975 521.696 171.922 527.934C171.867 534.392 173.377 540.761 176.314 546.498L179.269 544.794C176.568 539.666 175.14 533.954 175.119 528.144L175.123 527.554C175.194 522.004 176.547 516.551 179.071 511.619L176.323 510.032ZM72.1054 476.121C69.1686 477.647 66.2928 479.303 63.4875 481.087L62.9523 480.245C65.7824 478.445 68.6828 476.773 71.6455 475.235L72.1054 476.121ZM239.657 572.236C239.806 575.571 239.808 578.919 239.665 582.27L238.668 582.228C238.81 578.906 238.807 575.588 238.66 572.282L239.657 572.236ZM179.939 512.12C177.413 517.073 176.099 522.565 176.119 528.14C176.139 533.777 177.52 539.317 180.135 544.294L201.88 531.754C200.918 529.533 200.77 526.986 201.568 524.607L179.939 512.12ZM131.939 484.407C130.275 486.289 127.992 487.433 125.585 487.709L125.585 512.217C131.222 511.894 136.702 510.213 141.555 507.31C146.095 504.593 149.953 500.887 152.847 496.478L131.939 484.407ZM90.322 468.052L90.3211 468.051L90.4719 468.529C87.3104 469.524 84.1904 470.659 81.1229 471.927L80.7409 471.002C83.8353 469.723 86.9824 468.581 90.1716 467.576L90.322 468.052ZM237.026 552.363C237.751 555.627 238.335 558.924 238.774 562.243L237.784 562.375C237.348 559.084 236.77 555.815 236.052 552.579L236.54 552.471L237.026 552.363ZM128.452 470.847C124.626 468.638 119.733 469.949 117.524 473.775C116.712 475.181 116.377 476.732 116.466 478.24C116.471 478.318 116.477 478.396 116.483 478.473C116.495 478.602 116.509 478.729 116.527 478.857C116.544 478.979 116.564 479.1 116.586 479.221C116.728 479.989 116.98 480.734 117.338 481.431C117.741 482.219 118.279 482.943 118.939 483.57L118.938 483.57C119.387 483.997 119.892 484.38 120.452 484.703C121.446 485.277 122.513 485.611 123.585 485.727L123.837 485.751C124.423 485.795 125.009 485.774 125.585 485.691C127.93 485.354 130.104 483.986 131.38 481.775C131.797 481.052 132.089 480.291 132.262 479.518L132.261 479.519C132.266 479.498 132.27 479.476 132.274 479.455C132.314 479.269 132.346 479.081 132.373 478.894C132.386 478.795 132.399 478.697 132.409 478.598C132.413 478.564 132.416 478.531 132.419 478.497C132.448 478.173 132.457 477.849 132.447 477.526L132.448 477.526C132.362 474.852 130.939 472.283 128.452 470.847ZM215.054 520.847C212.567 519.411 209.63 519.463 207.271 520.726C207.217 520.755 207.163 520.786 207.109 520.816C205.908 521.496 204.866 522.494 204.126 523.775C202.851 525.984 202.751 528.548 203.629 530.746L203.723 530.973C203.952 531.5 204.239 532.002 204.579 532.472C205.219 533.356 206.049 534.123 207.054 534.703C208.077 535.294 209.176 535.63 210.28 535.736C210.524 535.76 210.769 535.772 211.013 535.773C211.04 535.773 211.067 535.774 211.094 535.773C211.285 535.772 211.475 535.765 211.665 535.75C212.25 535.705 212.827 535.595 213.387 535.425C213.844 535.286 214.288 535.105 214.715 534.886C214.748 534.869 214.782 534.852 214.816 534.835C214.95 534.763 215.084 534.688 215.215 534.608C216.325 533.934 217.287 532.98 217.983 531.775C220.192 527.949 218.881 523.056 215.054 520.847ZM109.875 464.223C106.584 464.658 103.315 465.236 100.079 465.954L99.8632 464.979C103.127 464.255 106.424 463.67 109.744 463.231L109.875 464.223ZM231.003 533.24C232.282 536.335 233.425 539.482 234.429 542.671L233.478 542.972C232.482 539.81 231.348 536.69 230.08 533.623L231.003 533.24ZM173.753 492.383C161.231 485.153 147.777 481.003 134.266 479.694C134.075 480.672 133.733 481.636 133.232 482.556L202.524 522.561C203.07 521.668 203.733 520.889 204.484 520.235C196.595 509.189 186.275 499.612 173.753 492.383ZM129.728 463.338C126.406 463.196 123.088 463.199 119.782 463.347L119.736 462.349C123.072 462.2 126.419 462.197 129.77 462.341L129.728 463.338ZM221.761 515.452C223.56 518.282 225.232 521.182 226.771 524.145L225.885 524.605C224.36 521.669 222.703 518.793 220.919 515.988L221.761 515.452ZM149.433 465.925C146.18 465.203 142.911 464.629 139.637 464.199L139.767 463.208C143.07 463.642 146.367 464.222 149.648 464.95L149.433 465.925ZM209.562 499.541C211.834 502.019 213.984 504.584 216.011 507.228L215.219 507.837C213.21 505.215 211.078 502.672 208.827 500.216L209.562 499.541ZM168.622 471.321L168.376 471.916C165.291 470.634 162.175 469.497 159.035 468.504L159.186 468.026L159.185 468.027L159.336 467.551C162.504 468.553 165.648 469.699 168.759 470.992L168.622 471.321ZM194.774 486.012C197.45 488.06 200.014 490.21 202.465 492.452L202.13 492.821L202.129 492.82L201.792 493.19C199.361 490.967 196.819 488.836 194.167 486.806L194.559 486.295L194.774 486.012ZM182.253 477.66C183.71 478.501 185.141 479.371 186.546 480.265L186.011 481.108C184.618 480.221 183.198 479.36 181.753 478.526C180.309 477.692 178.853 476.893 177.388 476.129L177.85 475.244C179.327 476.015 180.796 476.819 182.253 477.66Z" fill="url(#paint1_linear_155_240)" fill-opacity="0.2"/>
<path d="M135.333 246.5L121.5 269.556L107.666 246.5L121.5 223.443L135.333 246.5Z" stroke="#665931" stroke-width="2"/>
<circle cx="121.5" cy="246.5" r="2" fill="#665931"/>
<line x1="121.5" y1="224.5" x2="121.5" y2="174.5" stroke="#665931" stroke-width="2"/>
<line x1="121.5" y1="318.5" x2="121.5" y2="268.5" stroke="#665931" stroke-width="2"/>
<circle cx="121.5" cy="169.5" r="4" stroke="#665931" stroke-width="2"/>
<circle cx="121.5" cy="323.5" r="4" stroke="#665931" stroke-width="2"/>
<circle cx="156.5" cy="246.5" r="4" stroke="#665931" stroke-width="2"/>
<circle cx="86.5" cy="246.5" r="4" stroke="#665931" stroke-width="2"/>
<line x1="116.5" y1="292.5" x2="126.5" y2="292.5" stroke="#665931" stroke-width="2"/>
<line x1="116.5" y1="198.5" x2="126.5" y2="198.5" stroke="#665931" stroke-width="2"/>
<line x1="117.5" y1="203" x2="125.5" y2="203" stroke="#665931"/>
<line x1="117.5" y1="288" x2="125.5" y2="288" stroke="#665931"/>
<line x1="143" y1="250.5" x2="143" y2="242.5" stroke="#665931"/>
<line x1="145" y1="251.5" x2="145" y2="241.5" stroke="#665931"/>
<line x1="100" y1="242.5" x2="100" y2="250.5" stroke="#665931"/>
<line x1="98" y1="241.5" x2="98" y2="251.5" stroke="#665931"/>
<path d="M142.5 161.5C142.5 167.07 140.288 172.411 136.35 176.35C132.411 180.288 127.07 182.5 121.5 182.5C115.93 182.5 110.589 180.288 106.65 176.35C102.712 172.411 100.5 167.07 100.5 161.5V160.5H102.5V162.5H102.527C102.774 167.175 104.739 171.608 108.065 174.935C111.629 178.498 116.461 180.5 121.5 180.5C126.539 180.5 131.371 178.498 134.935 174.935C138.261 171.608 140.226 167.175 140.473 162.5H140.5V160.5H142.5V161.5Z" fill="#665931"/>
<path d="M100.5 332.5C100.5 326.93 102.712 321.589 106.65 317.65C110.589 313.712 115.93 311.5 121.5 311.5C127.07 311.5 132.411 313.712 136.35 317.65C140.288 321.589 142.5 326.93 142.5 332.5L142.5 333.5L140.5 333.5L140.5 331.5L140.473 331.5C140.226 326.825 138.261 322.392 134.935 319.065C131.371 315.502 126.539 313.5 121.5 313.5C116.461 313.5 111.629 315.502 108.065 319.065C104.739 322.392 102.774 326.825 102.527 331.5L102.5 331.5L102.5 333.5L100.5 333.5L100.5 332.5Z" fill="#665931"/>
<line x1="135.5" y1="246.5" x2="151.5" y2="246.5" stroke="#665931" stroke-width="2"/>
<line x1="91.5" y1="246.5" x2="107.5" y2="246.5" stroke="#665931" stroke-width="2"/>
</g>
<path d="M148.063 21.541H240C242.761 21.541 245 23.7797 245 26.541V517.5L244.993 517.757C244.864 520.314 242.814 522.364 240.257 522.493L240 522.5H5L4.74316 522.493C2.18625 522.364 0.136327 520.314 0.00683594 517.757L0 517.5V26.541C0.000110848 23.8658 2.10118 21.6815 4.74316 21.5479L5 21.541H98.2373L110.65 0H135.65L148.063 21.541ZM5 23.541C3.34322 23.541 2.00011 24.8843 2 26.541V517.5C2.00012 519.157 3.34322 520.5 5 520.5H240C241.657 520.5 243 519.157 243 517.5V26.541C243 24.8843 241.657 23.541 240 23.541H147.085L135.65 43.3848H110.65L99.2158 23.541H5ZM100.544 21.541H100.66L100.516 21.791L111.805 41.3828L134.496 41.3818L145.843 21.6934L134.495 2.00098H111.804L100.544 21.541Z" fill="#665931"/>
<path d="M136.696 21.3759C137.242 21.2961 137.624 20.7874 137.508 20.2474C136.888 17.3603 135.427 14.7123 133.3 12.6434C131.172 10.5745 128.484 9.18855 125.581 8.64962C125.038 8.54882 124.54 8.94466 124.475 9.49318L124.009 13.4659C123.944 14.0144 124.339 14.5057 124.877 14.6306C126.469 14.9999 127.936 15.7973 129.117 16.9451C130.297 18.0929 131.136 19.5378 131.549 21.1184C131.689 21.6527 132.191 22.0333 132.738 21.9535L136.696 21.3759Z" fill="#665931"/>
<path d="M127.867 22.8975C127.867 25.6589 125.629 27.8975 122.867 27.8975C120.106 27.8975 117.867 25.6589 117.867 22.8975C117.867 20.136 120.106 17.8975 122.867 17.8975C125.629 17.8975 127.867 20.136 127.867 22.8975Z" fill="#665931"/>
<path d="M5 51.5C5 51.7761 5.22386 52 5.5 52C5.77614 52 6 51.7761 6 51.5H5.5H5ZM6 26.5V26H5V26.5H5.5H6ZM5.5 51.5H6L6 26.5H5.5H5L5 51.5H5.5Z" fill="#665931"/>
<path d="M29.5 27C29.7761 27 30 26.7761 30 26.5C30 26.2239 29.7761 26 29.5 26L29.5 26.5L29.5 27ZM5.5 26.5L5.5 27L29.5 27L29.5 26.5L29.5 26L5.5 26L5.5 26.5Z" fill="#665931"/>
<path d="M29.5 26.5001C29.5 26.5001 17.8633 28.2044 12.5 33.5001M12.5 33.5001C6.86978 39.0594 5.5 51.5001 5.5 51.5001M12.5 33.5001L5.5 26.5001M5.5 41.5001C5.5 41.5001 6.5 32.5 9 30.0001C11.5 27.5003 19.5 26.5001 19.5 26.5001" stroke="#665931"/>
<path d="M214.5 26C214.224 26 214 26.2239 214 26.5C214 26.7761 214.224 27 214.5 27L214.5 26.5L214.5 26ZM239.5 27L240 27L240 26L239.5 26L239.5 26.5L239.5 27ZM214.5 26.5L214.5 27L239.5 27L239.5 26.5L239.5 26L214.5 26L214.5 26.5Z" fill="#665931"/>
<path d="M239 50.5C239 50.7761 239.224 51 239.5 51C239.776 51 240 50.7761 240 50.5L239.5 50.5L239 50.5ZM239.5 26.5L239 26.5L239 50.5L239.5 50.5L240 50.5L240 26.5L239.5 26.5Z" fill="#665931"/>
<path d="M239.5 50.5C239.5 50.5 237.796 38.8633 232.5 33.5M232.5 33.5C226.941 27.8698 214.5 26.5 214.5 26.5M232.5 33.5L239.5 26.5M224.5 26.5C224.5 26.5 233.5 27.5 236 30C238.5 32.5 239.5 40.5 239.5 40.5" stroke="#665931"/>
<path d="M240 492.5C240 492.224 239.776 492 239.5 492C239.224 492 239 492.224 239 492.5L239.5 492.5L240 492.5ZM239 517.5L239 518L240 518L240 517.5L239.5 517.5L239 517.5ZM239.5 492.5L239 492.5L239 517.5L239.5 517.5L240 517.5L240 492.5L239.5 492.5Z" fill="#665931"/>
<path d="M215.5 517C215.224 517 215 517.224 215 517.5C215 517.776 215.224 518 215.5 518L215.5 517.5L215.5 517ZM239.5 517.5L239.5 517L215.5 517L215.5 517.5L215.5 518L239.5 518L239.5 517.5Z" fill="#665931"/>
<path d="M215.5 517.5C215.5 517.5 227.137 515.796 232.5 510.5M232.5 510.5C238.13 504.941 239.5 492.5 239.5 492.5M232.5 510.5L239.5 517.5M239.5 502.5C239.5 502.5 238.5 511.5 236 514C233.5 516.5 225.5 517.5 225.5 517.5" stroke="#665931"/>
<path d="M30.5 518C30.7761 518 31 517.776 31 517.5C31 517.224 30.7761 517 30.5 517L30.5 517.5L30.5 518ZM5.5 517L5 517L5 518L5.5 518L5.5 517.5L5.5 517ZM30.5 517.5L30.5 517L5.5 517L5.5 517.5L5.5 518L30.5 518L30.5 517.5Z" fill="#665931"/>
<path d="M6.00001 493.5C6.00001 493.224 5.77615 493 5.50001 493C5.22386 493 5.00001 493.224 5.00001 493.5L5.50001 493.5L6.00001 493.5ZM5.5 517.5L6 517.5L6.00001 493.5L5.50001 493.5L5.00001 493.5L5 517.5L5.5 517.5Z" fill="#665931"/>
<path d="M5.49977 493.5C5.49977 493.5 7.20405 505.137 12.4998 510.5M12.4998 510.5C18.0591 516.13 30.4998 517.5 30.4998 517.5M12.4998 510.5L5.49977 517.5M20.4998 517.5C20.4998 517.5 11.4996 516.5 8.99977 514C6.49991 511.5 5.49977 503.5 5.49977 503.5" stroke="#665931"/>
<defs>
<linearGradient id="paint0_linear_155_240" x1="123" y1="-50" x2="123" y2="200" gradientUnits="userSpaceOnUse">
<stop stop-color="#665931"/>
<stop offset="0.65033" stop-color="#665931" stop-opacity="0"/>
</linearGradient>
<linearGradient id="paint1_linear_155_240" x1="125" y1="454.5" x2="125" y2="557.5" gradientUnits="userSpaceOnUse">
<stop stop-color="#665931" stop-opacity="0"/>
<stop offset="1" stop-color="#665931"/>
</linearGradient>
<clipPath id="clip0_155_240">
<rect y="22.5" width="245" height="500" rx="5" fill="white"/>
</clipPath>
</defs>
</svg>
